M48
; DRILL file {KiCad 9.0.7-9.0.7~ubuntu24.04.1} date 2026-03-18T18:19:19-0400
; FORMAT={-:-/ absolute / metric / decimal}
; #@! TF.CreationDate,2026-03-18T18:19:19-04:00
; #@! TF.GenerationSoftware,Kicad,Pcbnew,9.0.7-9.0.7~ubuntu24.04.1
; #@! TF.FileFunction,Plated,1,2,PTH
FMAT,2
METRIC
; #@! TA.AperFunction,Plated,PTH,ViaDrill
T1C0.300
; #@! TA.AperFunction,Plated,PTH,ComponentDrill
T2C0.813
; #@! TA.AperFunction,Plated,PTH,ComponentDrill
T3C1.000
%
G90
G05
T1
X132.83Y-118.54
X139.938Y-111.09
X140.754Y-91.523
X142.495Y-116.909
X142.5Y-119.14
X145.5Y-110.0
X149.213Y-90.113
T2
X143.38Y-100.5
X143.38Y-105.58
X151.0Y-100.5
X151.0Y-105.58
T3
X127.0Y-112.0
X127.0Y-114.54
X127.0Y-117.08
X135.0Y-112.0
X135.0Y-114.54
X135.0Y-117.08
X139.38Y-71.34
X139.38Y-73.88
X139.38Y-76.42
X139.38Y-78.96
X139.38Y-81.5
X139.38Y-84.04
X139.38Y-86.58
X139.38Y-89.12
X139.38Y-91.66
X139.9Y-124.175
X139.9Y-126.715
X139.9Y-129.255
X139.9Y-131.795
X139.9Y-134.335
X139.9Y-136.875
X143.5Y-155.0
X146.04Y-155.0
X148.58Y-155.0
X151.12Y-155.0
X154.62Y-71.34
X154.62Y-73.88
X154.62Y-76.42
X154.62Y-79.0
X154.62Y-81.5
X154.62Y-84.04
X154.62Y-86.58
X154.62Y-89.12
X154.62Y-91.66
X158.0Y-112.0
X158.0Y-114.54
X158.0Y-117.08
X162.24Y-128.68
X162.24Y-131.22
X162.24Y-133.76
X162.24Y-136.3
X162.24Y-143.18
X162.24Y-145.72
X166.0Y-112.0
X166.0Y-114.54
X166.0Y-117.08
M30
