%TF.GenerationSoftware,KiCad,Pcbnew,9.0.7-9.0.7~ubuntu24.04.1*%
%TF.CreationDate,2026-03-18T18:18:15-04:00*%
%TF.ProjectId,VoiceRecorder,566f6963-6552-4656-936f-726465722e6b,rev?*%
%TF.SameCoordinates,Original*%
%TF.FileFunction,Copper,L2,Bot*%
%TF.FilePolarity,Positive*%
%FSLAX46Y46*%
G04 Gerber Fmt 4.6, Leading zero omitted, Abs format (unit mm)*
G04 Created by KiCad (PCBNEW 9.0.7-9.0.7~ubuntu24.04.1) date 2026-03-18 18:18:15*
%MOMM*%
%LPD*%
G01*
G04 APERTURE LIST*
%TA.AperFunction,ComponentPad*%
%ADD10R,1.700000X1.700000*%
%TD*%
%TA.AperFunction,ComponentPad*%
%ADD11C,1.700000*%
%TD*%
%TA.AperFunction,ComponentPad*%
%ADD12C,1.397000*%
%TD*%
%TA.AperFunction,ComponentPad*%
%ADD13C,1.508000*%
%TD*%
%TA.AperFunction,ComponentPad*%
%ADD14R,1.508000X1.508000*%
%TD*%
%TA.AperFunction,ViaPad*%
%ADD15C,0.600000*%
%TD*%
%TA.AperFunction,Conductor*%
%ADD16C,0.200000*%
%TD*%
G04 APERTURE END LIST*
D10*
%TO.P,J2,1,CS*%
%TO.N,/SD_CS*%
X139900000Y-124175000D03*
D11*
%TO.P,J2,2,SCK*%
%TO.N,/SD_SCK*%
X139900000Y-126715000D03*
%TO.P,J2,3,MOSI*%
%TO.N,/SD_MOSI*%
X139900000Y-129255000D03*
%TO.P,J2,4,MISO*%
%TO.N,/SD_MISO*%
X139900000Y-131795000D03*
%TO.P,J2,5,VCC*%
%TO.N,+3.3V*%
X139900000Y-134335000D03*
%TO.P,J2,6,GND*%
%TO.N,GND*%
X139900000Y-136875000D03*
%TD*%
%TO.P,J8,3,Pin_3*%
%TO.N,/MIC_SD*%
X166000000Y-117080000D03*
%TO.P,J8,2,Pin_2*%
%TO.N,+3.3V*%
X166000000Y-114540000D03*
D10*
%TO.P,J8,1,Pin_1*%
%TO.N,GND*%
X166000000Y-112000000D03*
%TD*%
D11*
%TO.P,J_1,4,Pin_4*%
%TO.N,GND*%
X162240000Y-128680000D03*
%TO.P,J_1,3,Pin_3*%
%TO.N,/B-*%
X162240000Y-131220000D03*
%TO.P,J_1,2,Pin_2*%
%TO.N,/B+*%
X162240000Y-133760000D03*
D10*
%TO.P,J_1,1,Pin_1*%
%TO.N,/OUT+*%
X162240000Y-136300000D03*
%TD*%
%TO.P,J4,1,Pin_1*%
%TO.N,GND*%
X143500000Y-155000000D03*
D11*
%TO.P,J4,2,Pin_2*%
%TO.N,+3.3V*%
X146040000Y-155000000D03*
%TO.P,J4,3,Pin_3*%
%TO.N,/SCK*%
X148580000Y-155000000D03*
%TO.P,J4,4,Pin_4*%
%TO.N,/SDA*%
X151120000Y-155000000D03*
%TD*%
D12*
%TO.P,SW1,1,1*%
%TO.N,/BUTTON*%
X143380000Y-100500000D03*
X151000000Y-100500000D03*
%TO.P,SW1,2,2*%
%TO.N,GND*%
X143380000Y-105580000D03*
X151000000Y-105580000D03*
%TD*%
D10*
%TO.P,J1,1,Pin_1*%
%TO.N,GND*%
X127000000Y-112000000D03*
D11*
%TO.P,J1,2,Pin_2*%
%TO.N,/MIC_WS*%
X127000000Y-114540000D03*
%TO.P,J1,3,Pin_3*%
%TO.N,/MIC_SCK*%
X127000000Y-117080000D03*
%TD*%
D13*
%TO.P,J7,1,Pin_3*%
%TO.N,unconnected-(J7-Pin_3-Pad1)*%
X139380000Y-76420000D03*
%TO.P,J7,2,Pin_4*%
%TO.N,/SD_MOSI*%
X139380000Y-78960000D03*
%TO.P,J7,3,Pin_5*%
%TO.N,/BUTTON*%
X139380000Y-81500000D03*
%TO.P,J7,3V3,Pin_16*%
%TO.N,+3.3V*%
X154620000Y-76420000D03*
%TO.P,J7,4,Pin_6*%
%TO.N,/MIC_SD*%
X139380000Y-84040000D03*
%TO.P,J7,5,Pin_7*%
%TO.N,/MIC_WS*%
X139380000Y-86580000D03*
D14*
%TO.P,J7,5V,Pin_18*%
%TO.N,+5V*%
X154620000Y-71340000D03*
D13*
%TO.P,J7,6,Pin_8*%
%TO.N,/MIC_SCK*%
X139380000Y-89120000D03*
%TO.P,J7,7,Pin_9*%
%TO.N,unconnected-(J7-Pin_9-Pad7)*%
X139380000Y-91660000D03*
%TO.P,J7,8,Pin_10*%
%TO.N,/SDA*%
X154620000Y-91660000D03*
%TO.P,J7,9,Pin_11*%
%TO.N,/SCK*%
X154620000Y-89120000D03*
%TO.P,J7,10,Pin_12*%
%TO.N,/SD_CS*%
X154620000Y-86580000D03*
%TO.P,J7,11,Pin_13*%
%TO.N,unconnected-(J7-Pin_13-Pad11)*%
X154620000Y-84040000D03*
%TO.P,J7,12,Pin_14*%
%TO.N,/SD_SCK*%
X154620000Y-81500000D03*
%TO.P,J7,13,Pin_15*%
%TO.N,/SD_MISO*%
X154620000Y-79000000D03*
%TO.P,J7,GND,Pin_17*%
%TO.N,GND*%
X154620000Y-73880000D03*
%TO.P,J7,RX,Pin_2*%
%TO.N,unconnected-(J7-Pin_2-PadRX)*%
X139380000Y-73880000D03*
%TO.P,J7,TX,Pin_1*%
%TO.N,unconnected-(J7-Pin_1-PadTX)*%
X139380000Y-71340000D03*
%TD*%
D10*
%TO.P,J3,1,Pin_1*%
%TO.N,GND*%
X135000000Y-112000000D03*
D11*
%TO.P,J3,2,Pin_2*%
%TO.N,+3.3V*%
X135000000Y-114540000D03*
%TO.P,J3,3,Pin_3*%
%TO.N,/MIC_SD*%
X135000000Y-117080000D03*
%TD*%
D10*
%TO.P,SW2,1,A*%
%TO.N,/OUT+*%
X162240000Y-143180000D03*
D11*
%TO.P,SW2,2,B*%
%TO.N,+5V*%
X162240000Y-145720000D03*
%TD*%
D10*
%TO.P,J5,1,Pin_1*%
%TO.N,+3.3V*%
X158000000Y-112000000D03*
D11*
%TO.P,J5,2,Pin_2*%
%TO.N,/MIC_WS*%
X158000000Y-114540000D03*
%TO.P,J5,3,Pin_3*%
%TO.N,/MIC_SCK*%
X158000000Y-117080000D03*
%TD*%
D15*
%TO.N,/MIC_SCK*%
X142500000Y-119140000D03*
%TO.N,/MIC_SD*%
X132830000Y-118540000D03*
%TO.N,/SD_CS*%
X140753600Y-91522800D03*
X149212500Y-90112900D03*
%TO.N,/SD_SCK*%
X145500000Y-110000000D03*
%TO.N,/MIC_WS*%
X139938000Y-111090000D03*
%TO.N,/MIC_SCK*%
X142495000Y-116909000D03*
%TD*%
D16*
%TO.N,/MIC_SCK*%
X142500000Y-119500000D02*
X142500000Y-119140000D01*
X142482000Y-119518000D02*
X142500000Y-119500000D01*
X130482000Y-119518000D02*
X142482000Y-119518000D01*
X127917000Y-116953000D02*
X130482000Y-119518000D01*
%TO.N,/MIC_WS*%
X139938000Y-111090000D02*
X138848000Y-110000000D01*
X138848000Y-110000000D02*
X132330000Y-110000000D01*
X132330000Y-110000000D02*
X128355000Y-113975000D01*
%TO.N,/BUTTON*%
X151000000Y-100500000D02*
X143380000Y-100500000D01*
%TO.N,/MIC_SD*%
X164500000Y-118540000D02*
X132830000Y-118540000D01*
X132830000Y-118540000D02*
X132830000Y-118370000D01*
X165290000Y-117790000D02*
X166000000Y-117080000D01*
X165250000Y-117790000D02*
X165290000Y-117790000D01*
X166000000Y-117040000D02*
X165250000Y-117790000D01*
X165250000Y-117790000D02*
X164500000Y-118540000D01*
%TO.N,/SD_CS*%
X147802600Y-91522800D02*
X149212500Y-90112900D01*
X140753600Y-91522800D02*
X147802600Y-91522800D01*
%TO.N,/SD_SCK*%
X152120000Y-84000000D02*
X154620000Y-81500000D01*
X150000000Y-84000000D02*
X152120000Y-84000000D01*
X150000000Y-91000000D02*
X150000000Y-84000000D01*
X154000000Y-95000000D02*
X150000000Y-91000000D01*
X154000000Y-108000000D02*
X154000000Y-95000000D01*
X152000000Y-110000000D02*
X154000000Y-108000000D01*
X145500000Y-110000000D02*
X152000000Y-110000000D01*
%TO.N,/MIC_WS*%
X158040000Y-114500000D02*
X158000000Y-114540000D01*
X143388000Y-114540000D02*
X139938000Y-111090000D01*
X156040000Y-114540000D02*
X143388000Y-114540000D01*
X156500000Y-115000000D02*
X156040000Y-114540000D01*
X157540000Y-115000000D02*
X156500000Y-115000000D01*
X158000000Y-114540000D02*
X157540000Y-115000000D01*
X127790000Y-114540000D02*
X127000000Y-114540000D01*
X128355000Y-113975000D02*
X127790000Y-114540000D01*
X128355000Y-113975000D02*
X127330000Y-115000000D01*
%TO.N,/MIC_SCK*%
X157829000Y-116909000D02*
X142495000Y-116909000D01*
X158000000Y-117080000D02*
X157829000Y-116909000D01*
X127790000Y-117080000D02*
X127000000Y-117080000D01*
X127917000Y-116953000D02*
X127790000Y-117080000D01*
X127330000Y-117540000D02*
X127917000Y-116953000D01*
%TD*%
%TA.AperFunction,Conductor*%
%TO.N,GND*%
G36*
X133756092Y-110620185D02*
G01*
X133801847Y-110672989D01*
X133811791Y-110742147D01*
X133788319Y-110798811D01*
X133706649Y-110907906D01*
X133706645Y-110907913D01*
X133656403Y-111042620D01*
X133656401Y-111042627D01*
X133650000Y-111102155D01*
X133650000Y-111750000D01*
X134566988Y-111750000D01*
X134534075Y-111807007D01*
X134500000Y-111934174D01*
X134500000Y-112065826D01*
X134534075Y-112192993D01*
X134566988Y-112250000D01*
X133650000Y-112250000D01*
X133650000Y-112897844D01*
X133656401Y-112957372D01*
X133656403Y-112957379D01*
X133706645Y-113092086D01*
X133706649Y-113092093D01*
X133792809Y-113207187D01*
X133792812Y-113207190D01*
X133907906Y-113293350D01*
X133907913Y-113293354D01*
X134039470Y-113342422D01*
X134095404Y-113384293D01*
X134119821Y-113449758D01*
X134104969Y-113518031D01*
X134083819Y-113546285D01*
X133969889Y-113660215D01*
X133844951Y-113832179D01*
X133748444Y-114021585D01*
X133682753Y-114223760D01*
X133663754Y-114343716D01*
X133649500Y-114433713D01*
X133649500Y-114646287D01*
X133682754Y-114856243D01*
X133694719Y-114893068D01*
X133748444Y-115058414D01*
X133844951Y-115247820D01*
X133969890Y-115419786D01*
X134120213Y-115570109D01*
X134292182Y-115695050D01*
X134300946Y-115699516D01*
X134351742Y-115747491D01*
X134368536Y-115815312D01*
X134345998Y-115881447D01*
X134300946Y-115920484D01*
X134292182Y-115924949D01*
X134120213Y-116049890D01*
X133969890Y-116200213D01*
X133844951Y-116372179D01*
X133748444Y-116561585D01*
X133682753Y-116763760D01*
X133672237Y-116830158D01*
X133649500Y-116973713D01*
X133649500Y-117186287D01*
X133682754Y-117396243D01*
X133748440Y-117598404D01*
X133748444Y-117598414D01*
X133830371Y-117759205D01*
X133843267Y-117827874D01*
X133816991Y-117892615D01*
X133759884Y-117932872D01*
X133719886Y-117939500D01*
X133409766Y-117939500D01*
X133342727Y-117919815D01*
X133340875Y-117918602D01*
X133209185Y-117830609D01*
X133209172Y-117830602D01*
X133063501Y-117770264D01*
X133063489Y-117770261D01*
X132908845Y-117739500D01*
X132908842Y-117739500D01*
X132751158Y-117739500D01*
X132751155Y-117739500D01*
X132596510Y-117770261D01*
X132596498Y-117770264D01*
X132450827Y-117830602D01*
X132450814Y-117830609D01*
X132319711Y-117918210D01*
X132319707Y-117918213D01*
X132208213Y-118029707D01*
X132208210Y-118029711D01*
X132120609Y-118160814D01*
X132120602Y-118160827D01*
X132060264Y-118306498D01*
X132060261Y-118306510D01*
X132029500Y-118461153D01*
X132029500Y-118618846D01*
X132059429Y-118769309D01*
X132053202Y-118838900D01*
X132010339Y-118894078D01*
X131944449Y-118917322D01*
X131937812Y-118917500D01*
X130782098Y-118917500D01*
X130715059Y-118897815D01*
X130694417Y-118881181D01*
X128285718Y-116472483D01*
X128285716Y-116472481D01*
X128204801Y-116425764D01*
X128157645Y-116376306D01*
X128157596Y-116376337D01*
X128157455Y-116376108D01*
X128156587Y-116375197D01*
X128156429Y-116374889D01*
X128155051Y-116372184D01*
X128030104Y-116200208D01*
X127879792Y-116049896D01*
X127879786Y-116049890D01*
X127707820Y-115924951D01*
X127707115Y-115924591D01*
X127699054Y-115920485D01*
X127648259Y-115872512D01*
X127631463Y-115804692D01*
X127653999Y-115738556D01*
X127699054Y-115699515D01*
X127707816Y-115695051D01*
X127729789Y-115679086D01*
X127879786Y-115570109D01*
X127879788Y-115570106D01*
X127879792Y-115570104D01*
X128030104Y-115419792D01*
X128030106Y-115419788D01*
X128030109Y-115419786D01*
X128155048Y-115247820D01*
X128155047Y-115247820D01*
X128155051Y-115247816D01*
X128251557Y-115058412D01*
X128305280Y-114893067D01*
X128335528Y-114843705D01*
X128447451Y-114731784D01*
X128835520Y-114343716D01*
X128835520Y-114343714D01*
X128845724Y-114333511D01*
X128845727Y-114333506D01*
X132542416Y-110636819D01*
X132603739Y-110603334D01*
X132630097Y-110600500D01*
X133689053Y-110600500D01*
X133756092Y-110620185D01*
G37*
%TD.AperFunction*%
%TA.AperFunction,Conductor*%
G36*
X138614942Y-110620185D02*
G01*
X138635584Y-110636819D01*
X139103425Y-111104660D01*
X139136910Y-111165983D01*
X139137361Y-111168149D01*
X139168261Y-111323491D01*
X139168264Y-111323501D01*
X139228602Y-111469172D01*
X139228609Y-111469185D01*
X139316210Y-111600288D01*
X139316213Y-111600292D01*
X139427707Y-111711786D01*
X139427711Y-111711789D01*
X139558814Y-111799390D01*
X139558827Y-111799397D01*
X139704498Y-111859735D01*
X139704503Y-111859737D01*
X139769147Y-111872595D01*
X139859849Y-111890638D01*
X139921760Y-111923023D01*
X139923338Y-111924573D01*
X143019284Y-115020520D01*
X143156215Y-115099577D01*
X143308943Y-115140501D01*
X143308946Y-115140501D01*
X143474654Y-115140501D01*
X143474670Y-115140500D01*
X155739903Y-115140500D01*
X155806942Y-115160185D01*
X155827584Y-115176819D01*
X156015139Y-115364374D01*
X156015149Y-115364385D01*
X156019479Y-115368715D01*
X156019480Y-115368716D01*
X156131284Y-115480520D01*
X156218095Y-115530639D01*
X156218097Y-115530641D01*
X156268213Y-115559576D01*
X156268215Y-115559577D01*
X156420942Y-115600500D01*
X156420943Y-115600500D01*
X157121755Y-115600500D01*
X157140991Y-115606148D01*
X157161025Y-115606883D01*
X157184320Y-115618871D01*
X157188794Y-115620185D01*
X157192571Y-115622711D01*
X157193631Y-115623448D01*
X157292184Y-115695051D01*
X157308498Y-115703363D01*
X157315466Y-115708211D01*
X157332258Y-115729089D01*
X157351742Y-115747491D01*
X157353825Y-115755903D01*
X157359256Y-115762656D01*
X157362095Y-115789301D01*
X157368536Y-115815312D01*
X157365740Y-115823514D01*
X157366659Y-115832132D01*
X157354641Y-115856082D01*
X157345998Y-115881447D01*
X157338775Y-115887705D01*
X157335325Y-115894582D01*
X157321162Y-115902966D01*
X157300946Y-115920484D01*
X157292182Y-115924949D01*
X157120213Y-116049890D01*
X156969896Y-116200207D01*
X156928355Y-116257385D01*
X156873025Y-116300051D01*
X156828036Y-116308500D01*
X143074766Y-116308500D01*
X143007727Y-116288815D01*
X143005875Y-116287602D01*
X142874185Y-116199609D01*
X142874172Y-116199602D01*
X142728501Y-116139264D01*
X142728489Y-116139261D01*
X142573845Y-116108500D01*
X142573842Y-116108500D01*
X142416158Y-116108500D01*
X142416155Y-116108500D01*
X142261510Y-116139261D01*
X142261498Y-116139264D01*
X142115827Y-116199602D01*
X142115814Y-116199609D01*
X141984711Y-116287210D01*
X141984707Y-116287213D01*
X141873213Y-116398707D01*
X141873210Y-116398711D01*
X141785609Y-116529814D01*
X141785602Y-116529827D01*
X141725264Y-116675498D01*
X141725261Y-116675510D01*
X141694500Y-116830153D01*
X141694500Y-116987846D01*
X141725261Y-117142489D01*
X141725264Y-117142501D01*
X141785602Y-117288172D01*
X141785609Y-117288185D01*
X141873210Y-117419288D01*
X141873213Y-117419292D01*
X141984707Y-117530786D01*
X141984711Y-117530789D01*
X142115814Y-117618390D01*
X142115827Y-117618397D01*
X142261498Y-117678735D01*
X142261503Y-117678737D01*
X142294574Y-117685315D01*
X142337644Y-117693883D01*
X142399555Y-117726268D01*
X142434129Y-117786984D01*
X142430390Y-117856753D01*
X142389523Y-117913425D01*
X142324505Y-117939006D01*
X142313453Y-117939500D01*
X136280114Y-117939500D01*
X136213075Y-117919815D01*
X136167320Y-117867011D01*
X136157376Y-117797853D01*
X136169629Y-117759205D01*
X136202912Y-117693883D01*
X136251557Y-117598412D01*
X136317246Y-117396243D01*
X136350500Y-117186287D01*
X136350500Y-116973713D01*
X136317246Y-116763757D01*
X136251557Y-116561588D01*
X136155051Y-116372184D01*
X136155049Y-116372181D01*
X136155048Y-116372179D01*
X136030109Y-116200213D01*
X135879786Y-116049890D01*
X135707820Y-115924951D01*
X135707115Y-115924591D01*
X135699054Y-115920485D01*
X135648259Y-115872512D01*
X135631463Y-115804692D01*
X135653999Y-115738556D01*
X135699054Y-115699515D01*
X135707816Y-115695051D01*
X135729789Y-115679086D01*
X135879786Y-115570109D01*
X135879788Y-115570106D01*
X135879792Y-115570104D01*
X136030104Y-115419792D01*
X136030106Y-115419788D01*
X136030109Y-115419786D01*
X136155048Y-115247820D01*
X136155047Y-115247820D01*
X136155051Y-115247816D01*
X136251557Y-115058412D01*
X136317246Y-114856243D01*
X136350500Y-114646287D01*
X136350500Y-114433713D01*
X136317246Y-114223757D01*
X136251557Y-114021588D01*
X136155051Y-113832184D01*
X136155049Y-113832181D01*
X136155048Y-113832179D01*
X136030109Y-113660213D01*
X135916181Y-113546285D01*
X135882696Y-113484962D01*
X135887680Y-113415270D01*
X135929552Y-113359337D01*
X135960529Y-113342422D01*
X136092086Y-113293354D01*
X136092093Y-113293350D01*
X136207187Y-113207190D01*
X136207190Y-113207187D01*
X136293350Y-113092093D01*
X136293354Y-113092086D01*
X136343596Y-112957379D01*
X136343598Y-112957372D01*
X136349999Y-112897844D01*
X136350000Y-112897827D01*
X136350000Y-112250000D01*
X135433012Y-112250000D01*
X135465925Y-112192993D01*
X135500000Y-112065826D01*
X135500000Y-111934174D01*
X135465925Y-111807007D01*
X135433012Y-111750000D01*
X136350000Y-111750000D01*
X136350000Y-111102172D01*
X136349999Y-111102155D01*
X136343598Y-111042627D01*
X136343596Y-111042620D01*
X136293354Y-110907913D01*
X136293350Y-110907906D01*
X136211681Y-110798811D01*
X136187263Y-110733347D01*
X136202114Y-110665074D01*
X136251519Y-110615668D01*
X136310947Y-110600500D01*
X138547903Y-110600500D01*
X138614942Y-110620185D01*
G37*
%TD.AperFunction*%
%TA.AperFunction,Conductor*%
G36*
X168942539Y-69520185D02*
G01*
X168988294Y-69572989D01*
X168999500Y-69624500D01*
X168999500Y-158375500D01*
X168979815Y-158442539D01*
X168927011Y-158488294D01*
X168875500Y-158499500D01*
X125124500Y-158499500D01*
X125057461Y-158479815D01*
X125011706Y-158427011D01*
X125000500Y-158375500D01*
X125000500Y-154102155D01*
X142150000Y-154102155D01*
X142150000Y-154750000D01*
X143066988Y-154750000D01*
X143034075Y-154807007D01*
X143000000Y-154934174D01*
X143000000Y-155065826D01*
X143034075Y-155192993D01*
X143066988Y-155250000D01*
X142150000Y-155250000D01*
X142150000Y-155897844D01*
X142156401Y-155957372D01*
X142156403Y-155957379D01*
X142206645Y-156092086D01*
X142206649Y-156092093D01*
X142292809Y-156207187D01*
X142292812Y-156207190D01*
X142407906Y-156293350D01*
X142407913Y-156293354D01*
X142542620Y-156343596D01*
X142542627Y-156343598D01*
X142602155Y-156349999D01*
X142602172Y-156350000D01*
X143250000Y-156350000D01*
X143250000Y-155433012D01*
X143307007Y-155465925D01*
X143434174Y-155500000D01*
X143565826Y-155500000D01*
X143692993Y-155465925D01*
X143750000Y-155433012D01*
X143750000Y-156350000D01*
X144397828Y-156350000D01*
X144397844Y-156349999D01*
X144457372Y-156343598D01*
X144457379Y-156343596D01*
X144592086Y-156293354D01*
X144592093Y-156293350D01*
X144707187Y-156207190D01*
X144707190Y-156207187D01*
X144793350Y-156092093D01*
X144793354Y-156092086D01*
X144842422Y-155960529D01*
X144884293Y-155904595D01*
X144949757Y-155880178D01*
X145018030Y-155895030D01*
X145046285Y-155916181D01*
X145160213Y-156030109D01*
X145332179Y-156155048D01*
X145332181Y-156155049D01*
X145332184Y-156155051D01*
X145521588Y-156251557D01*
X145723757Y-156317246D01*
X145933713Y-156350500D01*
X145933714Y-156350500D01*
X146146286Y-156350500D01*
X146146287Y-156350500D01*
X146356243Y-156317246D01*
X146558412Y-156251557D01*
X146747816Y-156155051D01*
X146834471Y-156092093D01*
X146919786Y-156030109D01*
X146919788Y-156030106D01*
X146919792Y-156030104D01*
X147070104Y-155879792D01*
X147070106Y-155879788D01*
X147070109Y-155879786D01*
X147195048Y-155707820D01*
X147195047Y-155707820D01*
X147195051Y-155707816D01*
X147199514Y-155699054D01*
X147247488Y-155648259D01*
X147315308Y-155631463D01*
X147381444Y-155653999D01*
X147420486Y-155699056D01*
X147424951Y-155707820D01*
X147549890Y-155879786D01*
X147700213Y-156030109D01*
X147872179Y-156155048D01*
X147872181Y-156155049D01*
X147872184Y-156155051D01*
X148061588Y-156251557D01*
X148263757Y-156317246D01*
X148473713Y-156350500D01*
X148473714Y-156350500D01*
X148686286Y-156350500D01*
X148686287Y-156350500D01*
X148896243Y-156317246D01*
X149098412Y-156251557D01*
X149287816Y-156155051D01*
X149374471Y-156092093D01*
X149459786Y-156030109D01*
X149459788Y-156030106D01*
X149459792Y-156030104D01*
X149610104Y-155879792D01*
X149610106Y-155879788D01*
X149610109Y-155879786D01*
X149735048Y-155707820D01*
X149735047Y-155707820D01*
X149735051Y-155707816D01*
X149739514Y-155699054D01*
X149787488Y-155648259D01*
X149855308Y-155631463D01*
X149921444Y-155653999D01*
X149960486Y-155699056D01*
X149964951Y-155707820D01*
X150089890Y-155879786D01*
X150240213Y-156030109D01*
X150412179Y-156155048D01*
X150412181Y-156155049D01*
X150412184Y-156155051D01*
X150601588Y-156251557D01*
X150803757Y-156317246D01*
X151013713Y-156350500D01*
X151013714Y-156350500D01*
X151226286Y-156350500D01*
X151226287Y-156350500D01*
X151436243Y-156317246D01*
X151638412Y-156251557D01*
X151827816Y-156155051D01*
X151914471Y-156092093D01*
X151999786Y-156030109D01*
X151999788Y-156030106D01*
X151999792Y-156030104D01*
X152150104Y-155879792D01*
X152150106Y-155879788D01*
X152150109Y-155879786D01*
X152275048Y-155707820D01*
X152275047Y-155707820D01*
X152275051Y-155707816D01*
X152371557Y-155518412D01*
X152437246Y-155316243D01*
X152470500Y-155106287D01*
X152470500Y-154893713D01*
X152437246Y-154683757D01*
X152371557Y-154481588D01*
X152275051Y-154292184D01*
X152275049Y-154292181D01*
X152275048Y-154292179D01*
X152150109Y-154120213D01*
X151999786Y-153969890D01*
X151827820Y-153844951D01*
X151638414Y-153748444D01*
X151638413Y-153748443D01*
X151638412Y-153748443D01*
X151436243Y-153682754D01*
X151436241Y-153682753D01*
X151436240Y-153682753D01*
X151274957Y-153657208D01*
X151226287Y-153649500D01*
X151013713Y-153649500D01*
X150965042Y-153657208D01*
X150803760Y-153682753D01*
X150601585Y-153748444D01*
X150412179Y-153844951D01*
X150240213Y-153969890D01*
X150089890Y-154120213D01*
X149964949Y-154292182D01*
X149960484Y-154300946D01*
X149912509Y-154351742D01*
X149844688Y-154368536D01*
X149778553Y-154345998D01*
X149739516Y-154300946D01*
X149735050Y-154292182D01*
X149610109Y-154120213D01*
X149459786Y-153969890D01*
X149287820Y-153844951D01*
X149098414Y-153748444D01*
X149098413Y-153748443D01*
X149098412Y-153748443D01*
X148896243Y-153682754D01*
X148896241Y-153682753D01*
X148896240Y-153682753D01*
X148734957Y-153657208D01*
X148686287Y-153649500D01*
X148473713Y-153649500D01*
X148425042Y-153657208D01*
X148263760Y-153682753D01*
X148061585Y-153748444D01*
X147872179Y-153844951D01*
X147700213Y-153969890D01*
X147549890Y-154120213D01*
X147424949Y-154292182D01*
X147420484Y-154300946D01*
X147372509Y-154351742D01*
X147304688Y-154368536D01*
X147238553Y-154345998D01*
X147199516Y-154300946D01*
X147195050Y-154292182D01*
X147070109Y-154120213D01*
X146919786Y-153969890D01*
X146747820Y-153844951D01*
X146558414Y-153748444D01*
X146558413Y-153748443D01*
X146558412Y-153748443D01*
X146356243Y-153682754D01*
X146356241Y-153682753D01*
X146356240Y-153682753D01*
X146194957Y-153657208D01*
X146146287Y-153649500D01*
X145933713Y-153649500D01*
X145885042Y-153657208D01*
X145723760Y-153682753D01*
X145521585Y-153748444D01*
X145332179Y-153844951D01*
X145160215Y-153969889D01*
X145046285Y-154083819D01*
X144984962Y-154117303D01*
X144915270Y-154112319D01*
X144859337Y-154070447D01*
X144842422Y-154039470D01*
X144793354Y-153907913D01*
X144793350Y-153907906D01*
X144707190Y-153792812D01*
X144707187Y-153792809D01*
X144592093Y-153706649D01*
X144592086Y-153706645D01*
X144457379Y-153656403D01*
X144457372Y-153656401D01*
X144397844Y-153650000D01*
X143750000Y-153650000D01*
X143750000Y-154566988D01*
X143692993Y-154534075D01*
X143565826Y-154500000D01*
X143434174Y-154500000D01*
X143307007Y-154534075D01*
X143250000Y-154566988D01*
X143250000Y-153650000D01*
X142602155Y-153650000D01*
X142542627Y-153656401D01*
X142542620Y-153656403D01*
X142407913Y-153706645D01*
X142407906Y-153706649D01*
X142292812Y-153792809D01*
X142292809Y-153792812D01*
X142206649Y-153907906D01*
X142206645Y-153907913D01*
X142156403Y-154042620D01*
X142156401Y-154042627D01*
X142150000Y-154102155D01*
X125000500Y-154102155D01*
X125000500Y-142282135D01*
X160889500Y-142282135D01*
X160889500Y-144077870D01*
X160889501Y-144077876D01*
X160895908Y-144137483D01*
X160946202Y-144272328D01*
X160946206Y-144272335D01*
X161032452Y-144387544D01*
X161032455Y-144387547D01*
X161147664Y-144473793D01*
X161147671Y-144473797D01*
X161279082Y-144522810D01*
X161335016Y-144564681D01*
X161359433Y-144630145D01*
X161344582Y-144698418D01*
X161323431Y-144726673D01*
X161209889Y-144840215D01*
X161084951Y-145012179D01*
X160988444Y-145201585D01*
X160922753Y-145403760D01*
X160889500Y-145613713D01*
X160889500Y-145826286D01*
X160922753Y-146036239D01*
X160988444Y-146238414D01*
X161084951Y-146427820D01*
X161209890Y-146599786D01*
X161360213Y-146750109D01*
X161532179Y-146875048D01*
X161532181Y-146875049D01*
X161532184Y-146875051D01*
X161721588Y-146971557D01*
X161923757Y-147037246D01*
X162133713Y-147070500D01*
X162133714Y-147070500D01*
X162346286Y-147070500D01*
X162346287Y-147070500D01*
X162556243Y-147037246D01*
X162758412Y-146971557D01*
X162947816Y-146875051D01*
X162969789Y-146859086D01*
X163119786Y-146750109D01*
X163119788Y-146750106D01*
X163119792Y-146750104D01*
X163270104Y-146599792D01*
X163270106Y-146599788D01*
X163270109Y-146599786D01*
X163395048Y-146427820D01*
X163395047Y-146427820D01*
X163395051Y-146427816D01*
X163491557Y-146238412D01*
X163557246Y-146036243D01*
X163590500Y-145826287D01*
X163590500Y-145613713D01*
X163557246Y-145403757D01*
X163491557Y-145201588D01*
X163395051Y-145012184D01*
X163395049Y-145012181D01*
X163395048Y-145012179D01*
X163270109Y-144840213D01*
X163156569Y-144726673D01*
X163123084Y-144665350D01*
X163128068Y-144595658D01*
X163169940Y-144539725D01*
X163200915Y-144522810D01*
X163332331Y-144473796D01*
X163447546Y-144387546D01*
X163533796Y-144272331D01*
X163584091Y-144137483D01*
X163590500Y-144077873D01*
X163590499Y-142282128D01*
X163584091Y-142222517D01*
X163533796Y-142087669D01*
X163533795Y-142087668D01*
X163533793Y-142087664D01*
X163447547Y-141972455D01*
X163447544Y-141972452D01*
X163332335Y-141886206D01*
X163332328Y-141886202D01*
X163197482Y-141835908D01*
X163197483Y-141835908D01*
X163137883Y-141829501D01*
X163137881Y-141829500D01*
X163137873Y-141829500D01*
X163137864Y-141829500D01*
X161342129Y-141829500D01*
X161342123Y-141829501D01*
X161282516Y-141835908D01*
X161147671Y-141886202D01*
X161147664Y-141886206D01*
X161032455Y-141972452D01*
X161032452Y-141972455D01*
X160946206Y-142087664D01*
X160946202Y-142087671D01*
X160895908Y-142222517D01*
X160889501Y-142282116D01*
X160889501Y-142282123D01*
X160889500Y-142282135D01*
X125000500Y-142282135D01*
X125000500Y-123277135D01*
X138549500Y-123277135D01*
X138549500Y-125072870D01*
X138549501Y-125072876D01*
X138555908Y-125132483D01*
X138606202Y-125267328D01*
X138606206Y-125267335D01*
X138692452Y-125382544D01*
X138692455Y-125382547D01*
X138807664Y-125468793D01*
X138807671Y-125468797D01*
X138939082Y-125517810D01*
X138995016Y-125559681D01*
X139019433Y-125625145D01*
X139004582Y-125693418D01*
X138983431Y-125721673D01*
X138869889Y-125835215D01*
X138744951Y-126007179D01*
X138648444Y-126196585D01*
X138582753Y-126398760D01*
X138549500Y-126608713D01*
X138549500Y-126821286D01*
X138582753Y-127031239D01*
X138648444Y-127233414D01*
X138744951Y-127422820D01*
X138869890Y-127594786D01*
X139020213Y-127745109D01*
X139192182Y-127870050D01*
X139200946Y-127874516D01*
X139251742Y-127922491D01*
X139268536Y-127990312D01*
X139245998Y-128056447D01*
X139200946Y-128095484D01*
X139192182Y-128099949D01*
X139020213Y-128224890D01*
X138869890Y-128375213D01*
X138744951Y-128547179D01*
X138648444Y-128736585D01*
X138582753Y-128938760D01*
X138549500Y-129148713D01*
X138549500Y-129361286D01*
X138582753Y-129571239D01*
X138648444Y-129773414D01*
X138744951Y-129962820D01*
X138869890Y-130134786D01*
X139020213Y-130285109D01*
X139192182Y-130410050D01*
X139200946Y-130414516D01*
X139251742Y-130462491D01*
X139268536Y-130530312D01*
X139245998Y-130596447D01*
X139200946Y-130635484D01*
X139192182Y-130639949D01*
X139020213Y-130764890D01*
X138869890Y-130915213D01*
X138744951Y-131087179D01*
X138648444Y-131276585D01*
X138582753Y-131478760D01*
X138573649Y-131536243D01*
X138549500Y-131688713D01*
X138549500Y-131901287D01*
X138559534Y-131964644D01*
X138582753Y-132111239D01*
X138648444Y-132313414D01*
X138744951Y-132502820D01*
X138869890Y-132674786D01*
X139020213Y-132825109D01*
X139192182Y-132950050D01*
X139200946Y-132954516D01*
X139251742Y-133002491D01*
X139268536Y-133070312D01*
X139245998Y-133136447D01*
X139200946Y-133175484D01*
X139192182Y-133179949D01*
X139020213Y-133304890D01*
X138869890Y-133455213D01*
X138744951Y-133627179D01*
X138648444Y-133816585D01*
X138582753Y-134018760D01*
X138573649Y-134076243D01*
X138549500Y-134228713D01*
X138549500Y-134441287D01*
X138582754Y-134651243D01*
X138625103Y-134781580D01*
X138648444Y-134853414D01*
X138744951Y-135042820D01*
X138869890Y-135214786D01*
X139020213Y-135365109D01*
X139192179Y-135490048D01*
X139192181Y-135490049D01*
X139192184Y-135490051D01*
X139201493Y-135494794D01*
X139252290Y-135542766D01*
X139269087Y-135610587D01*
X139246552Y-135676722D01*
X139201505Y-135715760D01*
X139192446Y-135720376D01*
X139192440Y-135720380D01*
X139138282Y-135759727D01*
X139138282Y-135759728D01*
X139770591Y-136392037D01*
X139707007Y-136409075D01*
X139592993Y-136474901D01*
X139499901Y-136567993D01*
X139434075Y-136682007D01*
X139417037Y-136745591D01*
X138784728Y-136113282D01*
X138784727Y-136113282D01*
X138745380Y-136167439D01*
X138648904Y-136356782D01*
X138583242Y-136558869D01*
X138583242Y-136558872D01*
X138550000Y-136768753D01*
X138550000Y-136981246D01*
X138583242Y-137191127D01*
X138583242Y-137191130D01*
X138648904Y-137393217D01*
X138745375Y-137582550D01*
X138784728Y-137636716D01*
X139417037Y-137004408D01*
X139434075Y-137067993D01*
X139499901Y-137182007D01*
X139592993Y-137275099D01*
X139707007Y-137340925D01*
X139770590Y-137357962D01*
X139138282Y-137990269D01*
X139138282Y-137990270D01*
X139192449Y-138029624D01*
X139381782Y-138126095D01*
X139583870Y-138191757D01*
X139793754Y-138225000D01*
X140006246Y-138225000D01*
X140216127Y-138191757D01*
X140216130Y-138191757D01*
X140418217Y-138126095D01*
X140607554Y-138029622D01*
X140661716Y-137990270D01*
X140661717Y-137990270D01*
X140029408Y-137357962D01*
X140092993Y-137340925D01*
X140207007Y-137275099D01*
X140300099Y-137182007D01*
X140365925Y-137067993D01*
X140382962Y-137004408D01*
X141015270Y-137636717D01*
X141015270Y-137636716D01*
X141054622Y-137582554D01*
X141151095Y-137393217D01*
X141216757Y-137191130D01*
X141216757Y-137191127D01*
X141250000Y-136981246D01*
X141250000Y-136768753D01*
X141216757Y-136558872D01*
X141216757Y-136558869D01*
X141151095Y-136356782D01*
X141054624Y-136167449D01*
X141015270Y-136113282D01*
X141015269Y-136113282D01*
X140382962Y-136745590D01*
X140365925Y-136682007D01*
X140300099Y-136567993D01*
X140207007Y-136474901D01*
X140092993Y-136409075D01*
X140029409Y-136392037D01*
X140661716Y-135759728D01*
X140607547Y-135720373D01*
X140607547Y-135720372D01*
X140598500Y-135715763D01*
X140547706Y-135667788D01*
X140530912Y-135599966D01*
X140553451Y-135533832D01*
X140598508Y-135494793D01*
X140607816Y-135490051D01*
X140728831Y-135402129D01*
X140779786Y-135365109D01*
X140779788Y-135365106D01*
X140779792Y-135365104D01*
X140930104Y-135214792D01*
X140930106Y-135214788D01*
X140930109Y-135214786D01*
X141055048Y-135042820D01*
X141055047Y-135042820D01*
X141055051Y-135042816D01*
X141151557Y-134853412D01*
X141217246Y-134651243D01*
X141250500Y-134441287D01*
X141250500Y-134228713D01*
X141217246Y-134018757D01*
X141151557Y-133816588D01*
X141055051Y-133627184D01*
X141055049Y-133627181D01*
X141055048Y-133627179D01*
X140930109Y-133455213D01*
X140779786Y-133304890D01*
X140607820Y-133179951D01*
X140607115Y-133179591D01*
X140599054Y-133175485D01*
X140548259Y-133127512D01*
X140531463Y-133059692D01*
X140553999Y-132993556D01*
X140599054Y-132954515D01*
X140607816Y-132950051D01*
X140629789Y-132934086D01*
X140779786Y-132825109D01*
X140779788Y-132825106D01*
X140779792Y-132825104D01*
X140930104Y-132674792D01*
X140930106Y-132674788D01*
X140930109Y-132674786D01*
X141055048Y-132502820D01*
X141055047Y-132502820D01*
X141055051Y-132502816D01*
X141151557Y-132313412D01*
X141217246Y-132111243D01*
X141250500Y-131901287D01*
X141250500Y-131688713D01*
X141217246Y-131478757D01*
X141151557Y-131276588D01*
X141068568Y-131113713D01*
X160889500Y-131113713D01*
X160889500Y-131326286D01*
X160922753Y-131536239D01*
X160988444Y-131738414D01*
X161084951Y-131927820D01*
X161209890Y-132099786D01*
X161360213Y-132250109D01*
X161532182Y-132375050D01*
X161540946Y-132379516D01*
X161591742Y-132427491D01*
X161608536Y-132495312D01*
X161585998Y-132561447D01*
X161540946Y-132600484D01*
X161532182Y-132604949D01*
X161360213Y-132729890D01*
X161209890Y-132880213D01*
X161084951Y-133052179D01*
X160988444Y-133241585D01*
X160922753Y-133443760D01*
X160889500Y-133653713D01*
X160889500Y-133866286D01*
X160922753Y-134076239D01*
X160988444Y-134278414D01*
X161084951Y-134467820D01*
X161209890Y-134639786D01*
X161323430Y-134753326D01*
X161356915Y-134814649D01*
X161351931Y-134884341D01*
X161310059Y-134940274D01*
X161279083Y-134957189D01*
X161147669Y-135006203D01*
X161147664Y-135006206D01*
X161032455Y-135092452D01*
X161032452Y-135092455D01*
X160946206Y-135207664D01*
X160946202Y-135207671D01*
X160895908Y-135342517D01*
X160889501Y-135402116D01*
X160889501Y-135402123D01*
X160889500Y-135402135D01*
X160889500Y-137197870D01*
X160889501Y-137197876D01*
X160895908Y-137257483D01*
X160946202Y-137392328D01*
X160946206Y-137392335D01*
X161032452Y-137507544D01*
X161032455Y-137507547D01*
X161147664Y-137593793D01*
X161147671Y-137593797D01*
X161282517Y-137644091D01*
X161282516Y-137644091D01*
X161289444Y-137644835D01*
X161342127Y-137650500D01*
X163137872Y-137650499D01*
X163197483Y-137644091D01*
X163332331Y-137593796D01*
X163447546Y-137507546D01*
X163533796Y-137392331D01*
X163584091Y-137257483D01*
X163590500Y-137197873D01*
X163590499Y-135402128D01*
X163584091Y-135342517D01*
X163536450Y-135214786D01*
X163533797Y-135207671D01*
X163533793Y-135207664D01*
X163447547Y-135092455D01*
X163447544Y-135092452D01*
X163332335Y-135006206D01*
X163332328Y-135006202D01*
X163200917Y-134957189D01*
X163144983Y-134915318D01*
X163120566Y-134849853D01*
X163135418Y-134781580D01*
X163156563Y-134753332D01*
X163270104Y-134639792D01*
X163395051Y-134467816D01*
X163491557Y-134278412D01*
X163557246Y-134076243D01*
X163590500Y-133866287D01*
X163590500Y-133653713D01*
X163557246Y-133443757D01*
X163491557Y-133241588D01*
X163395051Y-133052184D01*
X163395049Y-133052181D01*
X163395048Y-133052179D01*
X163270109Y-132880213D01*
X163119786Y-132729890D01*
X162947820Y-132604951D01*
X162947115Y-132604591D01*
X162939054Y-132600485D01*
X162888259Y-132552512D01*
X162871463Y-132484692D01*
X162893999Y-132418556D01*
X162939054Y-132379515D01*
X162947816Y-132375051D01*
X163032653Y-132313414D01*
X163119786Y-132250109D01*
X163119788Y-132250106D01*
X163119792Y-132250104D01*
X163270104Y-132099792D01*
X163270106Y-132099788D01*
X163270109Y-132099786D01*
X163395048Y-131927820D01*
X163395047Y-131927820D01*
X163395051Y-131927816D01*
X163491557Y-131738412D01*
X163557246Y-131536243D01*
X163590500Y-131326287D01*
X163590500Y-131113713D01*
X163557246Y-130903757D01*
X163491557Y-130701588D01*
X163395051Y-130512184D01*
X163395049Y-130512181D01*
X163395048Y-130512179D01*
X163270109Y-130340213D01*
X163119786Y-130189890D01*
X162947817Y-130064949D01*
X162938504Y-130060204D01*
X162887707Y-130012230D01*
X162870912Y-129944409D01*
X162893449Y-129878274D01*
X162938507Y-129839232D01*
X162947555Y-129834622D01*
X163001716Y-129795270D01*
X163001717Y-129795270D01*
X162369408Y-129162962D01*
X162432993Y-129145925D01*
X162547007Y-129080099D01*
X162640099Y-128987007D01*
X162705925Y-128872993D01*
X162722962Y-128809408D01*
X163355270Y-129441717D01*
X163355270Y-129441716D01*
X163394622Y-129387554D01*
X163491095Y-129198217D01*
X163556757Y-128996130D01*
X163556757Y-128996127D01*
X163590000Y-128786246D01*
X163590000Y-128573753D01*
X163556757Y-128363872D01*
X163556757Y-128363869D01*
X163491095Y-128161782D01*
X163394624Y-127972449D01*
X163355270Y-127918282D01*
X163355269Y-127918282D01*
X162722962Y-128550590D01*
X162705925Y-128487007D01*
X162640099Y-128372993D01*
X162547007Y-128279901D01*
X162432993Y-128214075D01*
X162369409Y-128197037D01*
X163001716Y-127564728D01*
X162947550Y-127525375D01*
X162758217Y-127428904D01*
X162556129Y-127363242D01*
X162346246Y-127330000D01*
X162133754Y-127330000D01*
X161923872Y-127363242D01*
X161923869Y-127363242D01*
X161721782Y-127428904D01*
X161532439Y-127525380D01*
X161478282Y-127564727D01*
X161478282Y-127564728D01*
X162110591Y-128197037D01*
X162047007Y-128214075D01*
X161932993Y-128279901D01*
X161839901Y-128372993D01*
X161774075Y-128487007D01*
X161757037Y-128550591D01*
X161124728Y-127918282D01*
X161124727Y-127918282D01*
X161085380Y-127972439D01*
X160988904Y-128161782D01*
X160923242Y-128363869D01*
X160923242Y-128363872D01*
X160890000Y-128573753D01*
X160890000Y-128786246D01*
X160923242Y-128996127D01*
X160923242Y-128996130D01*
X160988904Y-129198217D01*
X161085375Y-129387550D01*
X161124728Y-129441716D01*
X161757037Y-128809408D01*
X161774075Y-128872993D01*
X161839901Y-128987007D01*
X161932993Y-129080099D01*
X162047007Y-129145925D01*
X162110590Y-129162962D01*
X161478282Y-129795269D01*
X161478282Y-129795270D01*
X161532452Y-129834626D01*
X161532451Y-129834626D01*
X161541495Y-129839234D01*
X161592292Y-129887208D01*
X161609087Y-129955029D01*
X161586550Y-130021164D01*
X161541499Y-130060202D01*
X161532182Y-130064949D01*
X161360213Y-130189890D01*
X161209890Y-130340213D01*
X161084951Y-130512179D01*
X160988444Y-130701585D01*
X160922753Y-130903760D01*
X160889500Y-131113713D01*
X141068568Y-131113713D01*
X141055051Y-131087184D01*
X141055050Y-131087182D01*
X140930109Y-130915213D01*
X140779786Y-130764890D01*
X140607820Y-130639951D01*
X140607115Y-130639591D01*
X140599054Y-130635485D01*
X140548259Y-130587512D01*
X140531463Y-130519692D01*
X140553999Y-130453556D01*
X140599054Y-130414515D01*
X140607816Y-130410051D01*
X140629789Y-130394086D01*
X140779786Y-130285109D01*
X140779788Y-130285106D01*
X140779792Y-130285104D01*
X140930104Y-130134792D01*
X140930106Y-130134788D01*
X140930109Y-130134786D01*
X141055048Y-129962820D01*
X141055047Y-129962820D01*
X141055051Y-129962816D01*
X141151557Y-129773412D01*
X141217246Y-129571243D01*
X141250500Y-129361287D01*
X141250500Y-129148713D01*
X141217246Y-128938757D01*
X141151557Y-128736588D01*
X141055051Y-128547184D01*
X141047023Y-128536134D01*
X140930109Y-128375213D01*
X140779786Y-128224890D01*
X140607820Y-128099951D01*
X140607115Y-128099591D01*
X140599054Y-128095485D01*
X140548259Y-128047512D01*
X140531463Y-127979692D01*
X140553999Y-127913556D01*
X140599054Y-127874515D01*
X140607816Y-127870051D01*
X140629789Y-127854086D01*
X140779786Y-127745109D01*
X140779788Y-127745106D01*
X140779792Y-127745104D01*
X140930104Y-127594792D01*
X141055051Y-127422816D01*
X141151557Y-127233412D01*
X141217246Y-127031243D01*
X141250500Y-126821287D01*
X141250500Y-126608713D01*
X141217246Y-126398757D01*
X141151557Y-126196588D01*
X141055051Y-126007184D01*
X141055049Y-126007181D01*
X141055048Y-126007179D01*
X140930109Y-125835213D01*
X140816569Y-125721673D01*
X140783084Y-125660350D01*
X140788068Y-125590658D01*
X140829940Y-125534725D01*
X140860915Y-125517810D01*
X140992331Y-125468796D01*
X141107546Y-125382546D01*
X141193796Y-125267331D01*
X141244091Y-125132483D01*
X141250500Y-125072873D01*
X141250499Y-123277128D01*
X141244091Y-123217517D01*
X141193796Y-123082669D01*
X141193795Y-123082668D01*
X141193793Y-123082664D01*
X141107547Y-122967455D01*
X141107544Y-122967452D01*
X140992335Y-122881206D01*
X140992328Y-122881202D01*
X140857482Y-122830908D01*
X140857483Y-122830908D01*
X140797883Y-122824501D01*
X140797881Y-122824500D01*
X140797873Y-122824500D01*
X140797864Y-122824500D01*
X139002129Y-122824500D01*
X139002123Y-122824501D01*
X138942516Y-122830908D01*
X138807671Y-122881202D01*
X138807664Y-122881206D01*
X138692455Y-122967452D01*
X138692452Y-122967455D01*
X138606206Y-123082664D01*
X138606202Y-123082671D01*
X138555908Y-123217517D01*
X138549501Y-123277116D01*
X138549501Y-123277123D01*
X138549500Y-123277135D01*
X125000500Y-123277135D01*
X125000500Y-114433713D01*
X125649500Y-114433713D01*
X125649500Y-114646287D01*
X125682754Y-114856243D01*
X125694719Y-114893068D01*
X125748444Y-115058414D01*
X125844951Y-115247820D01*
X125969890Y-115419786D01*
X126120213Y-115570109D01*
X126292182Y-115695050D01*
X126300946Y-115699516D01*
X126351742Y-115747491D01*
X126368536Y-115815312D01*
X126345998Y-115881447D01*
X126300946Y-115920484D01*
X126292182Y-115924949D01*
X126120213Y-116049890D01*
X125969890Y-116200213D01*
X125844951Y-116372179D01*
X125748444Y-116561585D01*
X125682753Y-116763760D01*
X125672237Y-116830158D01*
X125649500Y-116973713D01*
X125649500Y-117186287D01*
X125682754Y-117396243D01*
X125748440Y-117598404D01*
X125748444Y-117598414D01*
X125844951Y-117787820D01*
X125969890Y-117959786D01*
X126120213Y-118110109D01*
X126292179Y-118235048D01*
X126292181Y-118235049D01*
X126292184Y-118235051D01*
X126481588Y-118331557D01*
X126683757Y-118397246D01*
X126893713Y-118430500D01*
X126893714Y-118430500D01*
X127106286Y-118430500D01*
X127106287Y-118430500D01*
X127316243Y-118397246D01*
X127518412Y-118331557D01*
X127707816Y-118235051D01*
X127729789Y-118219086D01*
X127879786Y-118110109D01*
X127879788Y-118110106D01*
X127879792Y-118110104D01*
X127964649Y-118025247D01*
X128025972Y-117991762D01*
X128095664Y-117996746D01*
X128140011Y-118025247D01*
X130113284Y-119998520D01*
X130250215Y-120077577D01*
X130402943Y-120118501D01*
X130402946Y-120118501D01*
X130568654Y-120118501D01*
X130568670Y-120118500D01*
X142395331Y-120118500D01*
X142395347Y-120118501D01*
X142402943Y-120118501D01*
X142561054Y-120118501D01*
X142561057Y-120118501D01*
X142713785Y-120077577D01*
X142763904Y-120048639D01*
X142850716Y-119998520D01*
X142962520Y-119886716D01*
X142980520Y-119868716D01*
X143042254Y-119761789D01*
X143059577Y-119731785D01*
X143059578Y-119731783D01*
X143062688Y-119724275D01*
X143065116Y-119725280D01*
X143090131Y-119681946D01*
X143121789Y-119650289D01*
X143209394Y-119519179D01*
X143269737Y-119373497D01*
X143274505Y-119349524D01*
X143296231Y-119240308D01*
X143328616Y-119178397D01*
X143389332Y-119143823D01*
X143417848Y-119140500D01*
X164413331Y-119140500D01*
X164413347Y-119140501D01*
X164420943Y-119140501D01*
X164579054Y-119140501D01*
X164579057Y-119140501D01*
X164731785Y-119099577D01*
X164798328Y-119061158D01*
X164868716Y-119020520D01*
X164980520Y-118908716D01*
X164980520Y-118908714D01*
X164990724Y-118898511D01*
X164990728Y-118898506D01*
X165485287Y-118403946D01*
X165546608Y-118370463D01*
X165611283Y-118373697D01*
X165649280Y-118386044D01*
X165683756Y-118397246D01*
X165726071Y-118403948D01*
X165893713Y-118430500D01*
X165893714Y-118430500D01*
X166106286Y-118430500D01*
X166106287Y-118430500D01*
X166316243Y-118397246D01*
X166518412Y-118331557D01*
X166707816Y-118235051D01*
X166729789Y-118219086D01*
X166879786Y-118110109D01*
X166879788Y-118110106D01*
X166879792Y-118110104D01*
X167030104Y-117959792D01*
X167030106Y-117959788D01*
X167030109Y-117959786D01*
X167155048Y-117787820D01*
X167155047Y-117787820D01*
X167155051Y-117787816D01*
X167251557Y-117598412D01*
X167317246Y-117396243D01*
X167350500Y-117186287D01*
X167350500Y-116973713D01*
X167317246Y-116763757D01*
X167251557Y-116561588D01*
X167155051Y-116372184D01*
X167155049Y-116372181D01*
X167155048Y-116372179D01*
X167030109Y-116200213D01*
X166879786Y-116049890D01*
X166707820Y-115924951D01*
X166707115Y-115924591D01*
X166699054Y-115920485D01*
X166648259Y-115872512D01*
X166631463Y-115804692D01*
X166653999Y-115738556D01*
X166699054Y-115699515D01*
X166707816Y-115695051D01*
X166729789Y-115679086D01*
X166879786Y-115570109D01*
X166879788Y-115570106D01*
X166879792Y-115570104D01*
X167030104Y-115419792D01*
X167030106Y-115419788D01*
X167030109Y-115419786D01*
X167155048Y-115247820D01*
X167155047Y-115247820D01*
X167155051Y-115247816D01*
X167251557Y-115058412D01*
X167317246Y-114856243D01*
X167350500Y-114646287D01*
X167350500Y-114433713D01*
X167317246Y-114223757D01*
X167251557Y-114021588D01*
X167155051Y-113832184D01*
X167155049Y-113832181D01*
X167155048Y-113832179D01*
X167030109Y-113660213D01*
X166916181Y-113546285D01*
X166882696Y-113484962D01*
X166887680Y-113415270D01*
X166929552Y-113359337D01*
X166960529Y-113342422D01*
X167092086Y-113293354D01*
X167092093Y-113293350D01*
X167207187Y-113207190D01*
X167207190Y-113207187D01*
X167293350Y-113092093D01*
X167293354Y-113092086D01*
X167343596Y-112957379D01*
X167343598Y-112957372D01*
X167349999Y-112897844D01*
X167350000Y-112897827D01*
X167350000Y-112250000D01*
X166433012Y-112250000D01*
X166465925Y-112192993D01*
X166500000Y-112065826D01*
X166500000Y-111934174D01*
X166465925Y-111807007D01*
X166433012Y-111750000D01*
X167350000Y-111750000D01*
X167350000Y-111102172D01*
X167349999Y-111102155D01*
X167343598Y-111042627D01*
X167343596Y-111042620D01*
X167293354Y-110907913D01*
X167293350Y-110907906D01*
X167207190Y-110792812D01*
X167207187Y-110792809D01*
X167092093Y-110706649D01*
X167092086Y-110706645D01*
X166957379Y-110656403D01*
X166957372Y-110656401D01*
X166897844Y-110650000D01*
X166250000Y-110650000D01*
X166250000Y-111566988D01*
X166192993Y-111534075D01*
X166065826Y-111500000D01*
X165934174Y-111500000D01*
X165807007Y-111534075D01*
X165750000Y-111566988D01*
X165750000Y-110650000D01*
X165102155Y-110650000D01*
X165042627Y-110656401D01*
X165042620Y-110656403D01*
X164907913Y-110706645D01*
X164907906Y-110706649D01*
X164792812Y-110792809D01*
X164792809Y-110792812D01*
X164706649Y-110907906D01*
X164706645Y-110907913D01*
X164656403Y-111042620D01*
X164656401Y-111042627D01*
X164650000Y-111102155D01*
X164650000Y-111750000D01*
X165566988Y-111750000D01*
X165534075Y-111807007D01*
X165500000Y-111934174D01*
X165500000Y-112065826D01*
X165534075Y-112192993D01*
X165566988Y-112250000D01*
X164650000Y-112250000D01*
X164650000Y-112897844D01*
X164656401Y-112957372D01*
X164656403Y-112957379D01*
X164706645Y-113092086D01*
X164706649Y-113092093D01*
X164792809Y-113207187D01*
X164792812Y-113207190D01*
X164907906Y-113293350D01*
X164907913Y-113293354D01*
X165039470Y-113342422D01*
X165095404Y-113384293D01*
X165119821Y-113449758D01*
X165104969Y-113518031D01*
X165083819Y-113546285D01*
X164969889Y-113660215D01*
X164844951Y-113832179D01*
X164748444Y-114021585D01*
X164682753Y-114223760D01*
X164663754Y-114343716D01*
X164649500Y-114433713D01*
X164649500Y-114646287D01*
X164682754Y-114856243D01*
X164694719Y-114893068D01*
X164748444Y-115058414D01*
X164844951Y-115247820D01*
X164969890Y-115419786D01*
X165120213Y-115570109D01*
X165292182Y-115695050D01*
X165300946Y-115699516D01*
X165351742Y-115747491D01*
X165368536Y-115815312D01*
X165345998Y-115881447D01*
X165300946Y-115920484D01*
X165292182Y-115924949D01*
X165120213Y-116049890D01*
X164969890Y-116200213D01*
X164844951Y-116372179D01*
X164748444Y-116561585D01*
X164682753Y-116763760D01*
X164649500Y-116973713D01*
X164649500Y-117186286D01*
X164682754Y-117396243D01*
X164686682Y-117408333D01*
X164688677Y-117478174D01*
X164656432Y-117534332D01*
X164287584Y-117903181D01*
X164226261Y-117936666D01*
X164199903Y-117939500D01*
X159280114Y-117939500D01*
X159213075Y-117919815D01*
X159167320Y-117867011D01*
X159157376Y-117797853D01*
X159169629Y-117759205D01*
X159202912Y-117693883D01*
X159251557Y-117598412D01*
X159317246Y-117396243D01*
X159350500Y-117186287D01*
X159350500Y-116973713D01*
X159317246Y-116763757D01*
X159251557Y-116561588D01*
X159155051Y-116372184D01*
X159155049Y-116372181D01*
X159155048Y-116372179D01*
X159030109Y-116200213D01*
X158879786Y-116049890D01*
X158707820Y-115924951D01*
X158707115Y-115924591D01*
X158699054Y-115920485D01*
X158648259Y-115872512D01*
X158631463Y-115804692D01*
X158653999Y-115738556D01*
X158699054Y-115699515D01*
X158707816Y-115695051D01*
X158729789Y-115679086D01*
X158879786Y-115570109D01*
X158879788Y-115570106D01*
X158879792Y-115570104D01*
X159030104Y-115419792D01*
X159030106Y-115419788D01*
X159030109Y-115419786D01*
X159155048Y-115247820D01*
X159155047Y-115247820D01*
X159155051Y-115247816D01*
X159251557Y-115058412D01*
X159317246Y-114856243D01*
X159350500Y-114646287D01*
X159350500Y-114433713D01*
X159317246Y-114223757D01*
X159251557Y-114021588D01*
X159155051Y-113832184D01*
X159155049Y-113832181D01*
X159155048Y-113832179D01*
X159030109Y-113660213D01*
X158916569Y-113546673D01*
X158883084Y-113485350D01*
X158888068Y-113415658D01*
X158929940Y-113359725D01*
X158960915Y-113342810D01*
X159092331Y-113293796D01*
X159207546Y-113207546D01*
X159293796Y-113092331D01*
X159344091Y-112957483D01*
X159350500Y-112897873D01*
X159350499Y-111102128D01*
X159344091Y-111042517D01*
X159293884Y-110907906D01*
X159293797Y-110907671D01*
X159293793Y-110907664D01*
X159207547Y-110792455D01*
X159207544Y-110792452D01*
X159092335Y-110706206D01*
X159092328Y-110706202D01*
X158957482Y-110655908D01*
X158957483Y-110655908D01*
X158897883Y-110649501D01*
X158897881Y-110649500D01*
X158897873Y-110649500D01*
X158897864Y-110649500D01*
X157102129Y-110649500D01*
X157102123Y-110649501D01*
X157042516Y-110655908D01*
X156907671Y-110706202D01*
X156907664Y-110706206D01*
X156792455Y-110792452D01*
X156792452Y-110792455D01*
X156706206Y-110907664D01*
X156706202Y-110907671D01*
X156655908Y-111042517D01*
X156652380Y-111075337D01*
X156649501Y-111102123D01*
X156649500Y-111102135D01*
X156649500Y-112897870D01*
X156649501Y-112897876D01*
X156655908Y-112957483D01*
X156706202Y-113092328D01*
X156706206Y-113092335D01*
X156792452Y-113207544D01*
X156792455Y-113207547D01*
X156907664Y-113293793D01*
X156907671Y-113293797D01*
X157039082Y-113342810D01*
X157095016Y-113384681D01*
X157119433Y-113450145D01*
X157104582Y-113518418D01*
X157083431Y-113546673D01*
X156969889Y-113660215D01*
X156844951Y-113832179D01*
X156748444Y-114021583D01*
X156718366Y-114114156D01*
X156678928Y-114171831D01*
X156614569Y-114199029D01*
X156545723Y-114187114D01*
X156512754Y-114163518D01*
X156408717Y-114059481D01*
X156408716Y-114059480D01*
X156321904Y-114009360D01*
X156321904Y-114009359D01*
X156321900Y-114009358D01*
X156271785Y-113980423D01*
X156119057Y-113939499D01*
X155960943Y-113939499D01*
X155953347Y-113939499D01*
X155953331Y-113939500D01*
X143688098Y-113939500D01*
X143621059Y-113919815D01*
X143600417Y-113903181D01*
X140772573Y-111075337D01*
X140739088Y-111014014D01*
X140738637Y-111011847D01*
X140717963Y-110907913D01*
X140707737Y-110856503D01*
X140684540Y-110800499D01*
X140647397Y-110710827D01*
X140647390Y-110710814D01*
X140559789Y-110579711D01*
X140559786Y-110579707D01*
X140448292Y-110468213D01*
X140448288Y-110468210D01*
X140317185Y-110380609D01*
X140317172Y-110380602D01*
X140171501Y-110320264D01*
X140171491Y-110320261D01*
X140016151Y-110289362D01*
X139954241Y-110256977D01*
X139952662Y-110255426D01*
X139335590Y-109638355D01*
X139335588Y-109638352D01*
X139216717Y-109519481D01*
X139216716Y-109519480D01*
X139129904Y-109469360D01*
X139129904Y-109469359D01*
X139129900Y-109469358D01*
X139079785Y-109440423D01*
X138927057Y-109399499D01*
X138768943Y-109399499D01*
X138761347Y-109399499D01*
X138761331Y-109399500D01*
X132416669Y-109399500D01*
X132416653Y-109399499D01*
X132409057Y-109399499D01*
X132250943Y-109399499D01*
X132143587Y-109428265D01*
X132098210Y-109440424D01*
X132098209Y-109440425D01*
X132048096Y-109469359D01*
X132048095Y-109469360D01*
X132012853Y-109489707D01*
X131961285Y-109519479D01*
X131961282Y-109519481D01*
X128561681Y-112919083D01*
X128500358Y-112952568D01*
X128430666Y-112947584D01*
X128374733Y-112905712D01*
X128350316Y-112840248D01*
X128350000Y-112831402D01*
X128350000Y-112250000D01*
X127433012Y-112250000D01*
X127465925Y-112192993D01*
X127500000Y-112065826D01*
X127500000Y-111934174D01*
X127465925Y-111807007D01*
X127433012Y-111750000D01*
X128350000Y-111750000D01*
X128350000Y-111102172D01*
X128349999Y-111102155D01*
X128343598Y-111042627D01*
X128343596Y-111042620D01*
X128293354Y-110907913D01*
X128293350Y-110907906D01*
X128207190Y-110792812D01*
X128207187Y-110792809D01*
X128092093Y-110706649D01*
X128092086Y-110706645D01*
X127957379Y-110656403D01*
X127957372Y-110656401D01*
X127897844Y-110650000D01*
X127250000Y-110650000D01*
X127250000Y-111566988D01*
X127192993Y-111534075D01*
X127065826Y-111500000D01*
X126934174Y-111500000D01*
X126807007Y-111534075D01*
X126750000Y-111566988D01*
X126750000Y-110650000D01*
X126102155Y-110650000D01*
X126042627Y-110656401D01*
X126042620Y-110656403D01*
X125907913Y-110706645D01*
X125907906Y-110706649D01*
X125792812Y-110792809D01*
X125792809Y-110792812D01*
X125706649Y-110907906D01*
X125706645Y-110907913D01*
X125656403Y-111042620D01*
X125656401Y-111042627D01*
X125650000Y-111102155D01*
X125650000Y-111750000D01*
X126566988Y-111750000D01*
X126534075Y-111807007D01*
X126500000Y-111934174D01*
X126500000Y-112065826D01*
X126534075Y-112192993D01*
X126566988Y-112250000D01*
X125650000Y-112250000D01*
X125650000Y-112897844D01*
X125656401Y-112957372D01*
X125656403Y-112957379D01*
X125706645Y-113092086D01*
X125706649Y-113092093D01*
X125792809Y-113207187D01*
X125792812Y-113207190D01*
X125907906Y-113293350D01*
X125907913Y-113293354D01*
X126039470Y-113342422D01*
X126095404Y-113384293D01*
X126119821Y-113449758D01*
X126104969Y-113518031D01*
X126083819Y-113546285D01*
X125969889Y-113660215D01*
X125844951Y-113832179D01*
X125748444Y-114021585D01*
X125682753Y-114223760D01*
X125663754Y-114343716D01*
X125649500Y-114433713D01*
X125000500Y-114433713D01*
X125000500Y-105485676D01*
X142181500Y-105485676D01*
X142181500Y-105674323D01*
X142211011Y-105860650D01*
X142269304Y-106040061D01*
X142269305Y-106040063D01*
X142354952Y-106208153D01*
X142373189Y-106233255D01*
X142373190Y-106233255D01*
X142973600Y-105632845D01*
X142973600Y-105633504D01*
X143001295Y-105736865D01*
X143054799Y-105829536D01*
X143130464Y-105905201D01*
X143223135Y-105958705D01*
X143326496Y-105986400D01*
X143327153Y-105986400D01*
X142726743Y-106586808D01*
X142726743Y-106586809D01*
X142751844Y-106605046D01*
X142919935Y-106690694D01*
X142919938Y-106690695D01*
X143099349Y-106748988D01*
X143285677Y-106778500D01*
X143474323Y-106778500D01*
X143660650Y-106748988D01*
X143840061Y-106690695D01*
X143840064Y-106690694D01*
X144008151Y-106605048D01*
X144033256Y-106586808D01*
X143432848Y-105986400D01*
X143433504Y-105986400D01*
X143536865Y-105958705D01*
X143629536Y-105905201D01*
X143705201Y-105829536D01*
X143758705Y-105736865D01*
X143786400Y-105633504D01*
X143786400Y-105632847D01*
X144386808Y-106233256D01*
X144386808Y-106233255D01*
X144405048Y-106208151D01*
X144490694Y-106040064D01*
X144490695Y-106040061D01*
X144548988Y-105860650D01*
X144578500Y-105674323D01*
X144578500Y-105485676D01*
X149801500Y-105485676D01*
X149801500Y-105674323D01*
X149831011Y-105860650D01*
X149889304Y-106040061D01*
X149889305Y-106040063D01*
X149974952Y-106208153D01*
X149993189Y-106233255D01*
X149993190Y-106233255D01*
X150593600Y-105632845D01*
X150593600Y-105633504D01*
X150621295Y-105736865D01*
X150674799Y-105829536D01*
X150750464Y-105905201D01*
X150843135Y-105958705D01*
X150946496Y-105986400D01*
X150947153Y-105986400D01*
X150346743Y-106586808D01*
X150346743Y-106586809D01*
X150371844Y-106605046D01*
X150539935Y-106690694D01*
X150539938Y-106690695D01*
X150719349Y-106748988D01*
X150905677Y-106778500D01*
X151094323Y-106778500D01*
X151280650Y-106748988D01*
X151460061Y-106690695D01*
X151460064Y-106690694D01*
X151628151Y-106605048D01*
X151653255Y-106586808D01*
X151653256Y-106586808D01*
X151052848Y-105986400D01*
X151053504Y-105986400D01*
X151156865Y-105958705D01*
X151249536Y-105905201D01*
X151325201Y-105829536D01*
X151378705Y-105736865D01*
X151406400Y-105633504D01*
X151406400Y-105632847D01*
X152006808Y-106233256D01*
X152006808Y-106233255D01*
X152025048Y-106208151D01*
X152110694Y-106040064D01*
X152110695Y-106040061D01*
X152168988Y-105860650D01*
X152198500Y-105674323D01*
X152198500Y-105485676D01*
X152168988Y-105299349D01*
X152110695Y-105119938D01*
X152110694Y-105119935D01*
X152025046Y-104951844D01*
X152006809Y-104926743D01*
X152006808Y-104926743D01*
X151406400Y-105527151D01*
X151406400Y-105526496D01*
X151378705Y-105423135D01*
X151325201Y-105330464D01*
X151249536Y-105254799D01*
X151156865Y-105201295D01*
X151053504Y-105173600D01*
X151052847Y-105173600D01*
X151653255Y-104573190D01*
X151653255Y-104573189D01*
X151628153Y-104554952D01*
X151460063Y-104469305D01*
X151460061Y-104469304D01*
X151280650Y-104411011D01*
X151094323Y-104381500D01*
X150905677Y-104381500D01*
X150719349Y-104411011D01*
X150539938Y-104469304D01*
X150539936Y-104469305D01*
X150371844Y-104554953D01*
X150371839Y-104554957D01*
X150346743Y-104573188D01*
X150346743Y-104573191D01*
X150947154Y-105173600D01*
X150946496Y-105173600D01*
X150843135Y-105201295D01*
X150750464Y-105254799D01*
X150674799Y-105330464D01*
X150621295Y-105423135D01*
X150593600Y-105526496D01*
X150593600Y-105527152D01*
X149993191Y-104926743D01*
X149993188Y-104926743D01*
X149974957Y-104951839D01*
X149974953Y-104951844D01*
X149889305Y-105119936D01*
X149889304Y-105119938D01*
X149831011Y-105299349D01*
X149801500Y-105485676D01*
X144578500Y-105485676D01*
X144548988Y-105299349D01*
X144490695Y-105119938D01*
X144490694Y-105119935D01*
X144405046Y-104951844D01*
X144386809Y-104926743D01*
X144386808Y-104926743D01*
X143786400Y-105527151D01*
X143786400Y-105526496D01*
X143758705Y-105423135D01*
X143705201Y-105330464D01*
X143629536Y-105254799D01*
X143536865Y-105201295D01*
X143433504Y-105173600D01*
X143432847Y-105173600D01*
X144033255Y-104573190D01*
X144033255Y-104573189D01*
X144008153Y-104554952D01*
X143840063Y-104469305D01*
X143840061Y-104469304D01*
X143660650Y-104411011D01*
X143474323Y-104381500D01*
X143285677Y-104381500D01*
X143099349Y-104411011D01*
X142919938Y-104469304D01*
X142919936Y-104469305D01*
X142751844Y-104554953D01*
X142751839Y-104554957D01*
X142726743Y-104573188D01*
X142726743Y-104573191D01*
X143327154Y-105173600D01*
X143326496Y-105173600D01*
X143223135Y-105201295D01*
X143130464Y-105254799D01*
X143054799Y-105330464D01*
X143001295Y-105423135D01*
X142973600Y-105526496D01*
X142973600Y-105527152D01*
X142373191Y-104926743D01*
X142373188Y-104926743D01*
X142354957Y-104951839D01*
X142354953Y-104951844D01*
X142269305Y-105119936D01*
X142269304Y-105119938D01*
X142211011Y-105299349D01*
X142181500Y-105485676D01*
X125000500Y-105485676D01*
X125000500Y-100405631D01*
X142181000Y-100405631D01*
X142181000Y-100594368D01*
X142210522Y-100780763D01*
X142210523Y-100780767D01*
X142268843Y-100960256D01*
X142354523Y-101128413D01*
X142465454Y-101281096D01*
X142598904Y-101414546D01*
X142751587Y-101525477D01*
X142919744Y-101611157D01*
X143099233Y-101669477D01*
X143169134Y-101680548D01*
X143285632Y-101699000D01*
X143285637Y-101699000D01*
X143474368Y-101699000D01*
X143577920Y-101682598D01*
X143660767Y-101669477D01*
X143840256Y-101611157D01*
X144008413Y-101525477D01*
X144161096Y-101414546D01*
X144294546Y-101281096D01*
X144388621Y-101151613D01*
X144443950Y-101108949D01*
X144488938Y-101100500D01*
X149891062Y-101100500D01*
X149958101Y-101120185D01*
X149991378Y-101151612D01*
X150085454Y-101281096D01*
X150218904Y-101414546D01*
X150371587Y-101525477D01*
X150539744Y-101611157D01*
X150719233Y-101669477D01*
X150789134Y-101680548D01*
X150905632Y-101699000D01*
X150905637Y-101699000D01*
X151094368Y-101699000D01*
X151197920Y-101682598D01*
X151280767Y-101669477D01*
X151460256Y-101611157D01*
X151628413Y-101525477D01*
X151781096Y-101414546D01*
X151914546Y-101281096D01*
X152025477Y-101128413D01*
X152111157Y-100960256D01*
X152169477Y-100780767D01*
X152182598Y-100697920D01*
X152199000Y-100594368D01*
X152199000Y-100405631D01*
X152169477Y-100219236D01*
X152169477Y-100219233D01*
X152111157Y-100039744D01*
X152025477Y-99871587D01*
X151914546Y-99718904D01*
X151781096Y-99585454D01*
X151628413Y-99474523D01*
X151460256Y-99388843D01*
X151280767Y-99330523D01*
X151280765Y-99330522D01*
X151280763Y-99330522D01*
X151094368Y-99301000D01*
X151094363Y-99301000D01*
X150905637Y-99301000D01*
X150905632Y-99301000D01*
X150719236Y-99330522D01*
X150539741Y-99388844D01*
X150371586Y-99474523D01*
X150284475Y-99537813D01*
X150218904Y-99585454D01*
X150218902Y-99585456D01*
X150218901Y-99585456D01*
X150085456Y-99718901D01*
X150085456Y-99718902D01*
X150085454Y-99718904D01*
X149991380Y-99848386D01*
X149936050Y-99891051D01*
X149891062Y-99899500D01*
X144488938Y-99899500D01*
X144421899Y-99879815D01*
X144388620Y-99848386D01*
X144294546Y-99718904D01*
X144161096Y-99585454D01*
X144008413Y-99474523D01*
X143840256Y-99388843D01*
X143660767Y-99330523D01*
X143660765Y-99330522D01*
X143660763Y-99330522D01*
X143474368Y-99301000D01*
X143474363Y-99301000D01*
X143285637Y-99301000D01*
X143285632Y-99301000D01*
X143099236Y-99330522D01*
X142919741Y-99388844D01*
X142751586Y-99474523D01*
X142664475Y-99537813D01*
X142598904Y-99585454D01*
X142598902Y-99585456D01*
X142598901Y-99585456D01*
X142465456Y-99718901D01*
X142465456Y-99718902D01*
X142465454Y-99718904D01*
X142417813Y-99784475D01*
X142354523Y-99871586D01*
X142268844Y-100039741D01*
X142210522Y-100219236D01*
X142181000Y-100405631D01*
X125000500Y-100405631D01*
X125000500Y-71241263D01*
X138125500Y-71241263D01*
X138125500Y-71438736D01*
X138156389Y-71633763D01*
X138217408Y-71821558D01*
X138217409Y-71821561D01*
X138307056Y-71997501D01*
X138307058Y-71997504D01*
X138423115Y-72157246D01*
X138562753Y-72296884D01*
X138712234Y-72405486D01*
X138722499Y-72412944D01*
X138892404Y-72499516D01*
X138943199Y-72547490D01*
X138959994Y-72615311D01*
X138937456Y-72681446D01*
X138892404Y-72720483D01*
X138808007Y-72763487D01*
X138722495Y-72807058D01*
X138562753Y-72923115D01*
X138423115Y-73062753D01*
X138307058Y-73222495D01*
X138217408Y-73398441D01*
X138156389Y-73586236D01*
X138125500Y-73781263D01*
X138125500Y-73978736D01*
X138156389Y-74173763D01*
X138217348Y-74361373D01*
X138217409Y-74361561D01*
X138306923Y-74537239D01*
X138307058Y-74537504D01*
X138423115Y-74697246D01*
X138562753Y-74836884D01*
X138686158Y-74926541D01*
X138722499Y-74952944D01*
X138892404Y-75039516D01*
X138943199Y-75087490D01*
X138959994Y-75155311D01*
X138937456Y-75221446D01*
X138892404Y-75260483D01*
X138735321Y-75340522D01*
X138722495Y-75347058D01*
X138562753Y-75463115D01*
X138423115Y-75602753D01*
X138307058Y-75762495D01*
X138217408Y-75938441D01*
X138156389Y-76126236D01*
X138125500Y-76321263D01*
X138125500Y-76518736D01*
X138156389Y-76713763D01*
X138217408Y-76901558D01*
X138217409Y-76901561D01*
X138307056Y-77077501D01*
X138307058Y-77077504D01*
X138423115Y-77237246D01*
X138562753Y-77376884D01*
X138712234Y-77485486D01*
X138722499Y-77492944D01*
X138892404Y-77579516D01*
X138943199Y-77627490D01*
X138959994Y-77695311D01*
X138937456Y-77761446D01*
X138892404Y-77800483D01*
X138819936Y-77837409D01*
X138722495Y-77887058D01*
X138562753Y-78003115D01*
X138423115Y-78142753D01*
X138307058Y-78302495D01*
X138217408Y-78478441D01*
X138156389Y-78666236D01*
X138125500Y-78861263D01*
X138125500Y-79058736D01*
X138156389Y-79253763D01*
X138217408Y-79441558D01*
X138217409Y-79441561D01*
X138307056Y-79617501D01*
X138307058Y-79617504D01*
X138423115Y-79777246D01*
X138562753Y-79916884D01*
X138712234Y-80025486D01*
X138722499Y-80032944D01*
X138892404Y-80119516D01*
X138943199Y-80167490D01*
X138959994Y-80235311D01*
X138937456Y-80301446D01*
X138892404Y-80340483D01*
X138735321Y-80420522D01*
X138722495Y-80427058D01*
X138562753Y-80543115D01*
X138423115Y-80682753D01*
X138307058Y-80842495D01*
X138217408Y-81018441D01*
X138156389Y-81206236D01*
X138125500Y-81401263D01*
X138125500Y-81598736D01*
X138156389Y-81793763D01*
X138217408Y-81981558D01*
X138217409Y-81981561D01*
X138307056Y-82157501D01*
X138307058Y-82157504D01*
X138423115Y-82317246D01*
X138562753Y-82456884D01*
X138712234Y-82565486D01*
X138722499Y-82572944D01*
X138892404Y-82659516D01*
X138943199Y-82707490D01*
X138959994Y-82775311D01*
X138937456Y-82841446D01*
X138892404Y-82880483D01*
X138803403Y-82925833D01*
X138722495Y-82967058D01*
X138562753Y-83083115D01*
X138423115Y-83222753D01*
X138307058Y-83382495D01*
X138217408Y-83558441D01*
X138156389Y-83746236D01*
X138125500Y-83941263D01*
X138125500Y-84138736D01*
X138156389Y-84333763D01*
X138204073Y-84480518D01*
X138217409Y-84521561D01*
X138307056Y-84697501D01*
X138307058Y-84697504D01*
X138423115Y-84857246D01*
X138562753Y-84996884D01*
X138712234Y-85105486D01*
X138722499Y-85112944D01*
X138892404Y-85199516D01*
X138943199Y-85247490D01*
X138959994Y-85315311D01*
X138937456Y-85381446D01*
X138892404Y-85420483D01*
X138735321Y-85500522D01*
X138722495Y-85507058D01*
X138562753Y-85623115D01*
X138423115Y-85762753D01*
X138307058Y-85922495D01*
X138217408Y-86098441D01*
X138156389Y-86286236D01*
X138125500Y-86481263D01*
X138125500Y-86678736D01*
X138156389Y-86873763D01*
X138217408Y-87061558D01*
X138217409Y-87061561D01*
X138307056Y-87237501D01*
X138307058Y-87237504D01*
X138423115Y-87397246D01*
X138562753Y-87536884D01*
X138712234Y-87645486D01*
X138722499Y-87652944D01*
X138892404Y-87739516D01*
X138943199Y-87787490D01*
X138959994Y-87855311D01*
X138937456Y-87921446D01*
X138892404Y-87960483D01*
X138735321Y-88040522D01*
X138722495Y-88047058D01*
X138562753Y-88163115D01*
X138423115Y-88302753D01*
X138307058Y-88462495D01*
X138217408Y-88638441D01*
X138156389Y-88826236D01*
X138125500Y-89021263D01*
X138125500Y-89218736D01*
X138156389Y-89413763D01*
X138181522Y-89491113D01*
X138217409Y-89601561D01*
X138284749Y-89733721D01*
X138307058Y-89777504D01*
X138423115Y-89937246D01*
X138562753Y-90076884D01*
X138712234Y-90185486D01*
X138722499Y-90192944D01*
X138892404Y-90279516D01*
X138943199Y-90327490D01*
X138959994Y-90395311D01*
X138937456Y-90461446D01*
X138892404Y-90500483D01*
X138735321Y-90580522D01*
X138722495Y-90587058D01*
X138562753Y-90703115D01*
X138423115Y-90842753D01*
X138307058Y-91002495D01*
X138217408Y-91178441D01*
X138156389Y-91366236D01*
X138125500Y-91561263D01*
X138125500Y-91758736D01*
X138156389Y-91953763D01*
X138198179Y-92082377D01*
X138217409Y-92141561D01*
X138307056Y-92317501D01*
X138307058Y-92317504D01*
X138423115Y-92477246D01*
X138562753Y-92616884D01*
X138712234Y-92725486D01*
X138722499Y-92732944D01*
X138898439Y-92822591D01*
X139023637Y-92863270D01*
X139086236Y-92883610D01*
X139281264Y-92914500D01*
X139281269Y-92914500D01*
X139478736Y-92914500D01*
X139673763Y-92883610D01*
X139861561Y-92822591D01*
X140037501Y-92732944D01*
X140127192Y-92667779D01*
X140197246Y-92616884D01*
X140197248Y-92616881D01*
X140197252Y-92616879D01*
X140336879Y-92477252D01*
X140430615Y-92348234D01*
X140485942Y-92305569D01*
X140555123Y-92299503D01*
X140580052Y-92304461D01*
X140674755Y-92323300D01*
X140674758Y-92323300D01*
X140832444Y-92323300D01*
X140832445Y-92323299D01*
X140987097Y-92292537D01*
X141132779Y-92232194D01*
X141132785Y-92232190D01*
X141264475Y-92144198D01*
X141331153Y-92123320D01*
X141333366Y-92123300D01*
X147715931Y-92123300D01*
X147715947Y-92123301D01*
X147723543Y-92123301D01*
X147881654Y-92123301D01*
X147881657Y-92123301D01*
X148034385Y-92082377D01*
X148084504Y-92053439D01*
X148171316Y-92003320D01*
X148283120Y-91891516D01*
X148283120Y-91891514D01*
X148293328Y-91881307D01*
X148293329Y-91881304D01*
X149187819Y-90986815D01*
X149249141Y-90953332D01*
X149318833Y-90958316D01*
X149374766Y-91000188D01*
X149399183Y-91065652D01*
X149399499Y-91074498D01*
X149399499Y-91079054D01*
X149399498Y-91079054D01*
X149440423Y-91231785D01*
X149469358Y-91281900D01*
X149469359Y-91281904D01*
X149469360Y-91281904D01*
X149519479Y-91368714D01*
X149519481Y-91368717D01*
X149638349Y-91487585D01*
X149638355Y-91487590D01*
X153363181Y-95212416D01*
X153396666Y-95273739D01*
X153399500Y-95300097D01*
X153399500Y-107699903D01*
X153379815Y-107766942D01*
X153363181Y-107787584D01*
X151787584Y-109363181D01*
X151726261Y-109396666D01*
X151699903Y-109399500D01*
X146079766Y-109399500D01*
X146012727Y-109379815D01*
X146010875Y-109378602D01*
X145879185Y-109290609D01*
X145879172Y-109290602D01*
X145733501Y-109230264D01*
X145733489Y-109230261D01*
X145578845Y-109199500D01*
X145578842Y-109199500D01*
X145421158Y-109199500D01*
X145421155Y-109199500D01*
X145266510Y-109230261D01*
X145266498Y-109230264D01*
X145120827Y-109290602D01*
X145120814Y-109290609D01*
X144989711Y-109378210D01*
X144989707Y-109378213D01*
X144878213Y-109489707D01*
X144878210Y-109489711D01*
X144790609Y-109620814D01*
X144790602Y-109620827D01*
X144730264Y-109766498D01*
X144730261Y-109766510D01*
X144699500Y-109921153D01*
X144699500Y-110078846D01*
X144730261Y-110233489D01*
X144730264Y-110233501D01*
X144790602Y-110379172D01*
X144790609Y-110379185D01*
X144878210Y-110510288D01*
X144878213Y-110510292D01*
X144989707Y-110621786D01*
X144989711Y-110621789D01*
X145120814Y-110709390D01*
X145120827Y-110709397D01*
X145199894Y-110742147D01*
X145266503Y-110769737D01*
X145412667Y-110798811D01*
X145421153Y-110800499D01*
X145421156Y-110800500D01*
X145421158Y-110800500D01*
X145578844Y-110800500D01*
X145578845Y-110800499D01*
X145733497Y-110769737D01*
X145846166Y-110723067D01*
X145879172Y-110709397D01*
X145879172Y-110709396D01*
X145879179Y-110709394D01*
X145933663Y-110672989D01*
X146010875Y-110621398D01*
X146077553Y-110600520D01*
X146079766Y-110600500D01*
X151913331Y-110600500D01*
X151913347Y-110600501D01*
X151920943Y-110600501D01*
X152079054Y-110600501D01*
X152079057Y-110600501D01*
X152231785Y-110559577D01*
X152282281Y-110530423D01*
X152282282Y-110530423D01*
X152368709Y-110480524D01*
X152368708Y-110480524D01*
X152368716Y-110480520D01*
X152480520Y-110368716D01*
X152480520Y-110368714D01*
X152490724Y-110358511D01*
X152490728Y-110358506D01*
X154368713Y-108480521D01*
X154368716Y-108480520D01*
X154480520Y-108368716D01*
X154530639Y-108281904D01*
X154559577Y-108231785D01*
X154600500Y-108079057D01*
X154600500Y-107920943D01*
X154600500Y-94920943D01*
X154559577Y-94768216D01*
X154559577Y-94768215D01*
X154559577Y-94768214D01*
X154530639Y-94718095D01*
X154530637Y-94718092D01*
X154480520Y-94631284D01*
X154368716Y-94519480D01*
X154368715Y-94519479D01*
X154364385Y-94515149D01*
X154364374Y-94515139D01*
X150636819Y-90787584D01*
X150603334Y-90726261D01*
X150600500Y-90699903D01*
X150600500Y-84724500D01*
X150620185Y-84657461D01*
X150672989Y-84611706D01*
X150724500Y-84600500D01*
X152033331Y-84600500D01*
X152033347Y-84600501D01*
X152040943Y-84600501D01*
X152199054Y-84600501D01*
X152199057Y-84600501D01*
X152351785Y-84559577D01*
X152430875Y-84513914D01*
X152488716Y-84480520D01*
X152600520Y-84368716D01*
X152600520Y-84368714D01*
X152610724Y-84358511D01*
X152610728Y-84358506D01*
X153159167Y-83810066D01*
X153220488Y-83776583D01*
X153290180Y-83781567D01*
X153346113Y-83823439D01*
X153370530Y-83888903D01*
X153369320Y-83917144D01*
X153365500Y-83941266D01*
X153365500Y-84138736D01*
X153396389Y-84333763D01*
X153444073Y-84480518D01*
X153457409Y-84521561D01*
X153547056Y-84697501D01*
X153547058Y-84697504D01*
X153663115Y-84857246D01*
X153802753Y-84996884D01*
X153952234Y-85105486D01*
X153962499Y-85112944D01*
X154132404Y-85199516D01*
X154183199Y-85247490D01*
X154199994Y-85315311D01*
X154177456Y-85381446D01*
X154132404Y-85420483D01*
X153975321Y-85500522D01*
X153962495Y-85507058D01*
X153802753Y-85623115D01*
X153663115Y-85762753D01*
X153547058Y-85922495D01*
X153457408Y-86098441D01*
X153396389Y-86286236D01*
X153365500Y-86481263D01*
X153365500Y-86678736D01*
X153396389Y-86873763D01*
X153457408Y-87061558D01*
X153457409Y-87061561D01*
X153547056Y-87237501D01*
X153547058Y-87237504D01*
X153663115Y-87397246D01*
X153802753Y-87536884D01*
X153952234Y-87645486D01*
X153962499Y-87652944D01*
X154132404Y-87739516D01*
X154183199Y-87787490D01*
X154199994Y-87855311D01*
X154177456Y-87921446D01*
X154132404Y-87960483D01*
X153975321Y-88040522D01*
X153962495Y-88047058D01*
X153802753Y-88163115D01*
X153663115Y-88302753D01*
X153547058Y-88462495D01*
X153457408Y-88638441D01*
X153396389Y-88826236D01*
X153365500Y-89021263D01*
X153365500Y-89218736D01*
X153396389Y-89413763D01*
X153421522Y-89491113D01*
X153457409Y-89601561D01*
X153524749Y-89733721D01*
X153547058Y-89777504D01*
X153663115Y-89937246D01*
X153802753Y-90076884D01*
X153952234Y-90185486D01*
X153962499Y-90192944D01*
X154132404Y-90279516D01*
X154183199Y-90327490D01*
X154199994Y-90395311D01*
X154177456Y-90461446D01*
X154132404Y-90500483D01*
X153975321Y-90580522D01*
X153962495Y-90587058D01*
X153802753Y-90703115D01*
X153663115Y-90842753D01*
X153547058Y-91002495D01*
X153457408Y-91178441D01*
X153396389Y-91366236D01*
X153365500Y-91561263D01*
X153365500Y-91758736D01*
X153396389Y-91953763D01*
X153438179Y-92082377D01*
X153457409Y-92141561D01*
X153547056Y-92317501D01*
X153547058Y-92317504D01*
X153663115Y-92477246D01*
X153802753Y-92616884D01*
X153952234Y-92725486D01*
X153962499Y-92732944D01*
X154138439Y-92822591D01*
X154263637Y-92863270D01*
X154326236Y-92883610D01*
X154521264Y-92914500D01*
X154521269Y-92914500D01*
X154718736Y-92914500D01*
X154913763Y-92883610D01*
X155101561Y-92822591D01*
X155277501Y-92732944D01*
X155367192Y-92667779D01*
X155437246Y-92616884D01*
X155437248Y-92616881D01*
X155437252Y-92616879D01*
X155576879Y-92477252D01*
X155576881Y-92477248D01*
X155576884Y-92477246D01*
X155627779Y-92407192D01*
X155692944Y-92317501D01*
X155782591Y-92141561D01*
X155843610Y-91953763D01*
X155853469Y-91891516D01*
X155874500Y-91758736D01*
X155874500Y-91561263D01*
X155843610Y-91366236D01*
X155799924Y-91231785D01*
X155782591Y-91178439D01*
X155692944Y-91002499D01*
X155681550Y-90986817D01*
X155576884Y-90842753D01*
X155437246Y-90703115D01*
X155277505Y-90587058D01*
X155271119Y-90583804D01*
X155107593Y-90500482D01*
X155056800Y-90452510D01*
X155040005Y-90384689D01*
X155062542Y-90318554D01*
X155107593Y-90279517D01*
X155277501Y-90192944D01*
X155297912Y-90178114D01*
X155437246Y-90076884D01*
X155437248Y-90076881D01*
X155437252Y-90076879D01*
X155576879Y-89937252D01*
X155576881Y-89937248D01*
X155576884Y-89937246D01*
X155627779Y-89867192D01*
X155692944Y-89777501D01*
X155782591Y-89601561D01*
X155843610Y-89413763D01*
X155854792Y-89343163D01*
X155874500Y-89218736D01*
X155874500Y-89021263D01*
X155843610Y-88826236D01*
X155823270Y-88763637D01*
X155782591Y-88638439D01*
X155692944Y-88462499D01*
X155685486Y-88452234D01*
X155576884Y-88302753D01*
X155437246Y-88163115D01*
X155277505Y-88047058D01*
X155271119Y-88043804D01*
X155107593Y-87960482D01*
X155056800Y-87912510D01*
X155040005Y-87844689D01*
X155062542Y-87778554D01*
X155107593Y-87739517D01*
X155277501Y-87652944D01*
X155297912Y-87638114D01*
X155437246Y-87536884D01*
X155437248Y-87536881D01*
X155437252Y-87536879D01*
X155576879Y-87397252D01*
X155576881Y-87397248D01*
X155576884Y-87397246D01*
X155627779Y-87327192D01*
X155692944Y-87237501D01*
X155782591Y-87061561D01*
X155843610Y-86873763D01*
X155874500Y-86678736D01*
X155874500Y-86481263D01*
X155843610Y-86286236D01*
X155823270Y-86223637D01*
X155782591Y-86098439D01*
X155692944Y-85922499D01*
X155685486Y-85912234D01*
X155576884Y-85762753D01*
X155437246Y-85623115D01*
X155277505Y-85507058D01*
X155271119Y-85503804D01*
X155107593Y-85420482D01*
X155056800Y-85372510D01*
X155040005Y-85304689D01*
X155062542Y-85238554D01*
X155107593Y-85199517D01*
X155277501Y-85112944D01*
X155297912Y-85098114D01*
X155437246Y-84996884D01*
X155437248Y-84996881D01*
X155437252Y-84996879D01*
X155576879Y-84857252D01*
X155576881Y-84857248D01*
X155576884Y-84857246D01*
X155673328Y-84724500D01*
X155692944Y-84697501D01*
X155782591Y-84521561D01*
X155843610Y-84333763D01*
X155874500Y-84138736D01*
X155874500Y-83941263D01*
X155843610Y-83746236D01*
X155823270Y-83683637D01*
X155782591Y-83558439D01*
X155692944Y-83382499D01*
X155678909Y-83363181D01*
X155576884Y-83222753D01*
X155437246Y-83083115D01*
X155277505Y-82967058D01*
X155271119Y-82963804D01*
X155107593Y-82880482D01*
X155056800Y-82832510D01*
X155040005Y-82764689D01*
X155062542Y-82698554D01*
X155107593Y-82659517D01*
X155277501Y-82572944D01*
X155297912Y-82558114D01*
X155437246Y-82456884D01*
X155437248Y-82456881D01*
X155437252Y-82456879D01*
X155576879Y-82317252D01*
X155576881Y-82317248D01*
X155576884Y-82317246D01*
X155627779Y-82247192D01*
X155692944Y-82157501D01*
X155782591Y-81981561D01*
X155843610Y-81793763D01*
X155874500Y-81598736D01*
X155874500Y-81401263D01*
X155843610Y-81206236D01*
X155823270Y-81143637D01*
X155782591Y-81018439D01*
X155692944Y-80842499D01*
X155685486Y-80832234D01*
X155576884Y-80682753D01*
X155437246Y-80543115D01*
X155277505Y-80427058D01*
X155271830Y-80424166D01*
X155146846Y-80360483D01*
X155096052Y-80312510D01*
X155079257Y-80244689D01*
X155101794Y-80178554D01*
X155146845Y-80139517D01*
X155277501Y-80072944D01*
X155332561Y-80032941D01*
X155437246Y-79956884D01*
X155437248Y-79956881D01*
X155437252Y-79956879D01*
X155576879Y-79817252D01*
X155576881Y-79817248D01*
X155576884Y-79817246D01*
X155627779Y-79747192D01*
X155692944Y-79657501D01*
X155782591Y-79481561D01*
X155843610Y-79293763D01*
X155874500Y-79098736D01*
X155874500Y-78901263D01*
X155843610Y-78706236D01*
X155823270Y-78643637D01*
X155782591Y-78518439D01*
X155692944Y-78342499D01*
X155663880Y-78302495D01*
X155576884Y-78182753D01*
X155437246Y-78043115D01*
X155277504Y-77927058D01*
X155277503Y-77927057D01*
X155277501Y-77927056D01*
X155101561Y-77837409D01*
X155101555Y-77837407D01*
X155101557Y-77837407D01*
X155078631Y-77829958D01*
X155072389Y-77827930D01*
X155014714Y-77788494D01*
X154987515Y-77724136D01*
X154999429Y-77655289D01*
X155046673Y-77603813D01*
X155072388Y-77592069D01*
X155101561Y-77582591D01*
X155277501Y-77492944D01*
X155367192Y-77427779D01*
X155437246Y-77376884D01*
X155437248Y-77376881D01*
X155437252Y-77376879D01*
X155576879Y-77237252D01*
X155576881Y-77237248D01*
X155576884Y-77237246D01*
X155627779Y-77167192D01*
X155692944Y-77077501D01*
X155782591Y-76901561D01*
X155843610Y-76713763D01*
X155874500Y-76518736D01*
X155874500Y-76321263D01*
X155843610Y-76126236D01*
X155823270Y-76063637D01*
X155782591Y-75938439D01*
X155692944Y-75762499D01*
X155685486Y-75752234D01*
X155576884Y-75602753D01*
X155437246Y-75463115D01*
X155277505Y-75347058D01*
X155272334Y-75344423D01*
X155107043Y-75260202D01*
X155056250Y-75212230D01*
X155039455Y-75144409D01*
X155061992Y-75078275D01*
X155107046Y-75039235D01*
X155277241Y-74952516D01*
X155312988Y-74926543D01*
X155312988Y-74926541D01*
X154749410Y-74362962D01*
X154812993Y-74345925D01*
X154927007Y-74280099D01*
X155020099Y-74187007D01*
X155085925Y-74072993D01*
X155102962Y-74009409D01*
X155666541Y-74572988D01*
X155666543Y-74572988D01*
X155692516Y-74537241D01*
X155782126Y-74361373D01*
X155843123Y-74173646D01*
X155874000Y-73978697D01*
X155874000Y-73781302D01*
X155843123Y-73586353D01*
X155782126Y-73398626D01*
X155692520Y-73222768D01*
X155692512Y-73222755D01*
X155666542Y-73187010D01*
X155666541Y-73187009D01*
X155102962Y-73750589D01*
X155085925Y-73687007D01*
X155020099Y-73572993D01*
X154927007Y-73479901D01*
X154812993Y-73414075D01*
X154749409Y-73397037D01*
X155312989Y-72833457D01*
X155312988Y-72833456D01*
X155292839Y-72818817D01*
X155250173Y-72763487D01*
X155244194Y-72693874D01*
X155276800Y-72632079D01*
X155337638Y-72597722D01*
X155365723Y-72594499D01*
X155421872Y-72594499D01*
X155481483Y-72588091D01*
X155616331Y-72537796D01*
X155731546Y-72451546D01*
X155817796Y-72336331D01*
X155868091Y-72201483D01*
X155874500Y-72141873D01*
X155874499Y-70538128D01*
X155868091Y-70478517D01*
X155832508Y-70383115D01*
X155817797Y-70343671D01*
X155817793Y-70343664D01*
X155731547Y-70228455D01*
X155731544Y-70228452D01*
X155616335Y-70142206D01*
X155616328Y-70142202D01*
X155481482Y-70091908D01*
X155481483Y-70091908D01*
X155421883Y-70085501D01*
X155421881Y-70085500D01*
X155421873Y-70085500D01*
X155421864Y-70085500D01*
X153818129Y-70085500D01*
X153818123Y-70085501D01*
X153758516Y-70091908D01*
X153623671Y-70142202D01*
X153623664Y-70142206D01*
X153508455Y-70228452D01*
X153508452Y-70228455D01*
X153422206Y-70343664D01*
X153422202Y-70343671D01*
X153371908Y-70478517D01*
X153367153Y-70522748D01*
X153365501Y-70538123D01*
X153365500Y-70538135D01*
X153365500Y-72141870D01*
X153365501Y-72141876D01*
X153371908Y-72201483D01*
X153422202Y-72336328D01*
X153422206Y-72336335D01*
X153508452Y-72451544D01*
X153508455Y-72451547D01*
X153623664Y-72537793D01*
X153623671Y-72537797D01*
X153758517Y-72588091D01*
X153758516Y-72588091D01*
X153765444Y-72588835D01*
X153818127Y-72594500D01*
X153874275Y-72594499D01*
X153941312Y-72614182D01*
X153987068Y-72666986D01*
X153997012Y-72736144D01*
X153967988Y-72799700D01*
X153947159Y-72818817D01*
X153927010Y-72833455D01*
X153927010Y-72833457D01*
X154490591Y-73397037D01*
X154427007Y-73414075D01*
X154312993Y-73479901D01*
X154219901Y-73572993D01*
X154154075Y-73687007D01*
X154137037Y-73750590D01*
X153573457Y-73187010D01*
X153573456Y-73187010D01*
X153547483Y-73222760D01*
X153547482Y-73222762D01*
X153457873Y-73398626D01*
X153396876Y-73586353D01*
X153366000Y-73781302D01*
X153366000Y-73978697D01*
X153396876Y-74173646D01*
X153457873Y-74361373D01*
X153547483Y-74537239D01*
X153573457Y-74572988D01*
X153573457Y-74572989D01*
X154137037Y-74009409D01*
X154154075Y-74072993D01*
X154219901Y-74187007D01*
X154312993Y-74280099D01*
X154427007Y-74345925D01*
X154490590Y-74362962D01*
X153927009Y-74926541D01*
X153927010Y-74926542D01*
X153962755Y-74952512D01*
X153962768Y-74952520D01*
X154132953Y-75039235D01*
X154183749Y-75087210D01*
X154200544Y-75155031D01*
X154178006Y-75221166D01*
X154132954Y-75260203D01*
X153971189Y-75342627D01*
X153962495Y-75347058D01*
X153802753Y-75463115D01*
X153663115Y-75602753D01*
X153547058Y-75762495D01*
X153457408Y-75938441D01*
X153396389Y-76126236D01*
X153365500Y-76321263D01*
X153365500Y-76518736D01*
X153396389Y-76713763D01*
X153457408Y-76901558D01*
X153457409Y-76901561D01*
X153547056Y-77077501D01*
X153547058Y-77077504D01*
X153663115Y-77237246D01*
X153802753Y-77376884D01*
X153952234Y-77485486D01*
X153962499Y-77492944D01*
X154138439Y-77582591D01*
X154167610Y-77592069D01*
X154225286Y-77631507D01*
X154252484Y-77695865D01*
X154240569Y-77764712D01*
X154193325Y-77816187D01*
X154167611Y-77827930D01*
X154157326Y-77831271D01*
X154138441Y-77837408D01*
X153962495Y-77927058D01*
X153802753Y-78043115D01*
X153663115Y-78182753D01*
X153547058Y-78342495D01*
X153457408Y-78518441D01*
X153396389Y-78706236D01*
X153365500Y-78901263D01*
X153365500Y-79098736D01*
X153396389Y-79293763D01*
X153444411Y-79441558D01*
X153457409Y-79481561D01*
X153547056Y-79657501D01*
X153547058Y-79657504D01*
X153663115Y-79817246D01*
X153802753Y-79956884D01*
X153907439Y-80032941D01*
X153962499Y-80072944D01*
X154093151Y-80139515D01*
X154143947Y-80187490D01*
X154160742Y-80255311D01*
X154138204Y-80321446D01*
X154093151Y-80360484D01*
X153976017Y-80420167D01*
X153962495Y-80427058D01*
X153802753Y-80543115D01*
X153663115Y-80682753D01*
X153547058Y-80842495D01*
X153457408Y-81018441D01*
X153396389Y-81206236D01*
X153365500Y-81401263D01*
X153365500Y-81598736D01*
X153397152Y-81798575D01*
X153395407Y-81798851D01*
X153392290Y-81861038D01*
X153362892Y-81907871D01*
X151907584Y-83363181D01*
X151846261Y-83396666D01*
X151819903Y-83399500D01*
X149920943Y-83399500D01*
X149768216Y-83440423D01*
X149768209Y-83440426D01*
X149631290Y-83519475D01*
X149631282Y-83519481D01*
X149519481Y-83631282D01*
X149519475Y-83631290D01*
X149440426Y-83768209D01*
X149440423Y-83768216D01*
X149399500Y-83920943D01*
X149399500Y-89188400D01*
X149379815Y-89255439D01*
X149327011Y-89301194D01*
X149275500Y-89312400D01*
X149133655Y-89312400D01*
X148979010Y-89343161D01*
X148978998Y-89343164D01*
X148833327Y-89403502D01*
X148833314Y-89403509D01*
X148702211Y-89491110D01*
X148702207Y-89491113D01*
X148590713Y-89602607D01*
X148590710Y-89602611D01*
X148503109Y-89733714D01*
X148503102Y-89733727D01*
X148442764Y-89879398D01*
X148442761Y-89879408D01*
X148411862Y-90034748D01*
X148379477Y-90096659D01*
X148377926Y-90098237D01*
X147590184Y-90885981D01*
X147528861Y-90919466D01*
X147502503Y-90922300D01*
X141333366Y-90922300D01*
X141266327Y-90902615D01*
X141264475Y-90901402D01*
X141132785Y-90813409D01*
X141132772Y-90813402D01*
X140987101Y-90753064D01*
X140987089Y-90753061D01*
X140832445Y-90722300D01*
X140832442Y-90722300D01*
X140674758Y-90722300D01*
X140674755Y-90722300D01*
X140520110Y-90753061D01*
X140520098Y-90753064D01*
X140403673Y-90801289D01*
X140334204Y-90808758D01*
X140271725Y-90777483D01*
X140268540Y-90774409D01*
X140197246Y-90703115D01*
X140037505Y-90587058D01*
X140031119Y-90583804D01*
X139867593Y-90500482D01*
X139816800Y-90452510D01*
X139800005Y-90384689D01*
X139822542Y-90318554D01*
X139867593Y-90279517D01*
X140037501Y-90192944D01*
X140057912Y-90178114D01*
X140197246Y-90076884D01*
X140197248Y-90076881D01*
X140197252Y-90076879D01*
X140336879Y-89937252D01*
X140336881Y-89937248D01*
X140336884Y-89937246D01*
X140387779Y-89867192D01*
X140452944Y-89777501D01*
X140542591Y-89601561D01*
X140603610Y-89413763D01*
X140614792Y-89343163D01*
X140634500Y-89218736D01*
X140634500Y-89021263D01*
X140603610Y-88826236D01*
X140583270Y-88763637D01*
X140542591Y-88638439D01*
X140452944Y-88462499D01*
X140445486Y-88452234D01*
X140336884Y-88302753D01*
X140197246Y-88163115D01*
X140037505Y-88047058D01*
X140031119Y-88043804D01*
X139867593Y-87960482D01*
X139816800Y-87912510D01*
X139800005Y-87844689D01*
X139822542Y-87778554D01*
X139867593Y-87739517D01*
X140037501Y-87652944D01*
X140057912Y-87638114D01*
X140197246Y-87536884D01*
X140197248Y-87536881D01*
X140197252Y-87536879D01*
X140336879Y-87397252D01*
X140336881Y-87397248D01*
X140336884Y-87397246D01*
X140387779Y-87327192D01*
X140452944Y-87237501D01*
X140542591Y-87061561D01*
X140603610Y-86873763D01*
X140634500Y-86678736D01*
X140634500Y-86481263D01*
X140603610Y-86286236D01*
X140583270Y-86223637D01*
X140542591Y-86098439D01*
X140452944Y-85922499D01*
X140445486Y-85912234D01*
X140336884Y-85762753D01*
X140197246Y-85623115D01*
X140037505Y-85507058D01*
X140031119Y-85503804D01*
X139867593Y-85420482D01*
X139816800Y-85372510D01*
X139800005Y-85304689D01*
X139822542Y-85238554D01*
X139867593Y-85199517D01*
X140037501Y-85112944D01*
X140057912Y-85098114D01*
X140197246Y-84996884D01*
X140197248Y-84996881D01*
X140197252Y-84996879D01*
X140336879Y-84857252D01*
X140336881Y-84857248D01*
X140336884Y-84857246D01*
X140433328Y-84724500D01*
X140452944Y-84697501D01*
X140542591Y-84521561D01*
X140603610Y-84333763D01*
X140634500Y-84138736D01*
X140634500Y-83941263D01*
X140603610Y-83746236D01*
X140583270Y-83683637D01*
X140542591Y-83558439D01*
X140452944Y-83382499D01*
X140438909Y-83363181D01*
X140336884Y-83222753D01*
X140197246Y-83083115D01*
X140037505Y-82967058D01*
X140031119Y-82963804D01*
X139867593Y-82880482D01*
X139816800Y-82832510D01*
X139800005Y-82764689D01*
X139822542Y-82698554D01*
X139867593Y-82659517D01*
X140037501Y-82572944D01*
X140057912Y-82558114D01*
X140197246Y-82456884D01*
X140197248Y-82456881D01*
X140197252Y-82456879D01*
X140336879Y-82317252D01*
X140336881Y-82317248D01*
X140336884Y-82317246D01*
X140387779Y-82247192D01*
X140452944Y-82157501D01*
X140542591Y-81981561D01*
X140603610Y-81793763D01*
X140634500Y-81598736D01*
X140634500Y-81401263D01*
X140603610Y-81206236D01*
X140583270Y-81143637D01*
X140542591Y-81018439D01*
X140452944Y-80842499D01*
X140445486Y-80832234D01*
X140336884Y-80682753D01*
X140197246Y-80543115D01*
X140037505Y-80427058D01*
X140031119Y-80423804D01*
X139867593Y-80340482D01*
X139816800Y-80292510D01*
X139800005Y-80224689D01*
X139822542Y-80158554D01*
X139867593Y-80119517D01*
X140037501Y-80032944D01*
X140057912Y-80018114D01*
X140197246Y-79916884D01*
X140197248Y-79916881D01*
X140197252Y-79916879D01*
X140336879Y-79777252D01*
X140336881Y-79777248D01*
X140336884Y-79777246D01*
X140423880Y-79657504D01*
X140452944Y-79617501D01*
X140542591Y-79441561D01*
X140603610Y-79253763D01*
X140628165Y-79098731D01*
X140634500Y-79058736D01*
X140634500Y-78861263D01*
X140603610Y-78666236D01*
X140555588Y-78518441D01*
X140542591Y-78478439D01*
X140452944Y-78302499D01*
X140445486Y-78292234D01*
X140336884Y-78142753D01*
X140197246Y-78003115D01*
X140037505Y-77887058D01*
X140031119Y-77883804D01*
X139867593Y-77800482D01*
X139816800Y-77752510D01*
X139800005Y-77684689D01*
X139822542Y-77618554D01*
X139867593Y-77579517D01*
X140037501Y-77492944D01*
X140057912Y-77478114D01*
X140197246Y-77376884D01*
X140197248Y-77376881D01*
X140197252Y-77376879D01*
X140336879Y-77237252D01*
X140336881Y-77237248D01*
X140336884Y-77237246D01*
X140387779Y-77167192D01*
X140452944Y-77077501D01*
X140542591Y-76901561D01*
X140603610Y-76713763D01*
X140634500Y-76518736D01*
X140634500Y-76321263D01*
X140603610Y-76126236D01*
X140583270Y-76063637D01*
X140542591Y-75938439D01*
X140452944Y-75762499D01*
X140445486Y-75752234D01*
X140336884Y-75602753D01*
X140197246Y-75463115D01*
X140037505Y-75347058D01*
X140031119Y-75343804D01*
X139867593Y-75260482D01*
X139816800Y-75212510D01*
X139800005Y-75144689D01*
X139822542Y-75078554D01*
X139867593Y-75039517D01*
X140037501Y-74952944D01*
X140073842Y-74926541D01*
X140197246Y-74836884D01*
X140197248Y-74836881D01*
X140197252Y-74836879D01*
X140336879Y-74697252D01*
X140336881Y-74697248D01*
X140336884Y-74697246D01*
X140387779Y-74627192D01*
X140452944Y-74537501D01*
X140542591Y-74361561D01*
X140603610Y-74173763D01*
X140603629Y-74173646D01*
X140634500Y-73978736D01*
X140634500Y-73781263D01*
X140603610Y-73586236D01*
X140547671Y-73414075D01*
X140542591Y-73398439D01*
X140452944Y-73222499D01*
X140427159Y-73187009D01*
X140336884Y-73062753D01*
X140197246Y-72923115D01*
X140037505Y-72807058D01*
X140023064Y-72799700D01*
X139867593Y-72720482D01*
X139816800Y-72672510D01*
X139800005Y-72604689D01*
X139822542Y-72538554D01*
X139867593Y-72499517D01*
X140037501Y-72412944D01*
X140057912Y-72398114D01*
X140197246Y-72296884D01*
X140197248Y-72296881D01*
X140197252Y-72296879D01*
X140336879Y-72157252D01*
X140336881Y-72157248D01*
X140336884Y-72157246D01*
X140387779Y-72087192D01*
X140452944Y-71997501D01*
X140542591Y-71821561D01*
X140603610Y-71633763D01*
X140634500Y-71438736D01*
X140634500Y-71241263D01*
X140603610Y-71046236D01*
X140583270Y-70983637D01*
X140542591Y-70858439D01*
X140452944Y-70682499D01*
X140445531Y-70672296D01*
X140398596Y-70607694D01*
X140398593Y-70607691D01*
X140348052Y-70538127D01*
X140336879Y-70522748D01*
X140197252Y-70383121D01*
X140197246Y-70383115D01*
X140037504Y-70267058D01*
X140037503Y-70267057D01*
X140037501Y-70267056D01*
X139861561Y-70177409D01*
X139861558Y-70177408D01*
X139673763Y-70116389D01*
X139478736Y-70085500D01*
X139478731Y-70085500D01*
X139281269Y-70085500D01*
X139281264Y-70085500D01*
X139086236Y-70116389D01*
X138898441Y-70177408D01*
X138722495Y-70267058D01*
X138562753Y-70383115D01*
X138423115Y-70522753D01*
X138307058Y-70682495D01*
X138217408Y-70858441D01*
X138156389Y-71046236D01*
X138125500Y-71241263D01*
X125000500Y-71241263D01*
X125000500Y-69624500D01*
X125020185Y-69557461D01*
X125072989Y-69511706D01*
X125124500Y-69500500D01*
X168875500Y-69500500D01*
X168942539Y-69520185D01*
G37*
%TD.AperFunction*%
%TD*%
M02*
