%TF.GenerationSoftware,KiCad,Pcbnew,9.0.7-9.0.7~ubuntu24.04.1*%
%TF.CreationDate,2026-03-18T18:18:15-04:00*%
%TF.ProjectId,VoiceRecorder,566f6963-6552-4656-936f-726465722e6b,rev?*%
%TF.SameCoordinates,Original*%
%TF.FileFunction,Legend,Top*%
%TF.FilePolarity,Positive*%
%FSLAX46Y46*%
G04 Gerber Fmt 4.6, Leading zero omitted, Abs format (unit mm)*
G04 Created by KiCad (PCBNEW 9.0.7-9.0.7~ubuntu24.04.1) date 2026-03-18 18:18:15*
%MOMM*%
%LPD*%
G01*
G04 APERTURE LIST*
%ADD10C,0.150000*%
%ADD11C,0.120000*%
%ADD12C,0.127000*%
%ADD13C,0.200000*%
G04 APERTURE END LIST*
D10*
X135186666Y-120859819D02*
X135186666Y-121574104D01*
X135186666Y-121574104D02*
X135139047Y-121716961D01*
X135139047Y-121716961D02*
X135043809Y-121812200D01*
X135043809Y-121812200D02*
X134900952Y-121859819D01*
X134900952Y-121859819D02*
X134805714Y-121859819D01*
X135615238Y-120955057D02*
X135662857Y-120907438D01*
X135662857Y-120907438D02*
X135758095Y-120859819D01*
X135758095Y-120859819D02*
X135996190Y-120859819D01*
X135996190Y-120859819D02*
X136091428Y-120907438D01*
X136091428Y-120907438D02*
X136139047Y-120955057D01*
X136139047Y-120955057D02*
X136186666Y-121050295D01*
X136186666Y-121050295D02*
X136186666Y-121145533D01*
X136186666Y-121145533D02*
X136139047Y-121288390D01*
X136139047Y-121288390D02*
X135567619Y-121859819D01*
X135567619Y-121859819D02*
X136186666Y-121859819D01*
X165666666Y-109074819D02*
X165666666Y-109789104D01*
X165666666Y-109789104D02*
X165619047Y-109931961D01*
X165619047Y-109931961D02*
X165523809Y-110027200D01*
X165523809Y-110027200D02*
X165380952Y-110074819D01*
X165380952Y-110074819D02*
X165285714Y-110074819D01*
X166285714Y-109503390D02*
X166190476Y-109455771D01*
X166190476Y-109455771D02*
X166142857Y-109408152D01*
X166142857Y-109408152D02*
X166095238Y-109312914D01*
X166095238Y-109312914D02*
X166095238Y-109265295D01*
X166095238Y-109265295D02*
X166142857Y-109170057D01*
X166142857Y-109170057D02*
X166190476Y-109122438D01*
X166190476Y-109122438D02*
X166285714Y-109074819D01*
X166285714Y-109074819D02*
X166476190Y-109074819D01*
X166476190Y-109074819D02*
X166571428Y-109122438D01*
X166571428Y-109122438D02*
X166619047Y-109170057D01*
X166619047Y-109170057D02*
X166666666Y-109265295D01*
X166666666Y-109265295D02*
X166666666Y-109312914D01*
X166666666Y-109312914D02*
X166619047Y-109408152D01*
X166619047Y-109408152D02*
X166571428Y-109455771D01*
X166571428Y-109455771D02*
X166476190Y-109503390D01*
X166476190Y-109503390D02*
X166285714Y-109503390D01*
X166285714Y-109503390D02*
X166190476Y-109551009D01*
X166190476Y-109551009D02*
X166142857Y-109598628D01*
X166142857Y-109598628D02*
X166095238Y-109693866D01*
X166095238Y-109693866D02*
X166095238Y-109884342D01*
X166095238Y-109884342D02*
X166142857Y-109979580D01*
X166142857Y-109979580D02*
X166190476Y-110027200D01*
X166190476Y-110027200D02*
X166285714Y-110074819D01*
X166285714Y-110074819D02*
X166476190Y-110074819D01*
X166476190Y-110074819D02*
X166571428Y-110027200D01*
X166571428Y-110027200D02*
X166619047Y-109979580D01*
X166619047Y-109979580D02*
X166666666Y-109884342D01*
X166666666Y-109884342D02*
X166666666Y-109693866D01*
X166666666Y-109693866D02*
X166619047Y-109598628D01*
X166619047Y-109598628D02*
X166571428Y-109551009D01*
X166571428Y-109551009D02*
X166476190Y-109503390D01*
X161525714Y-138134819D02*
X161525714Y-138849104D01*
X161525714Y-138849104D02*
X161478095Y-138991961D01*
X161478095Y-138991961D02*
X161382857Y-139087200D01*
X161382857Y-139087200D02*
X161240000Y-139134819D01*
X161240000Y-139134819D02*
X161144762Y-139134819D01*
X161763810Y-139230057D02*
X162525714Y-139230057D01*
X163287619Y-139134819D02*
X162716191Y-139134819D01*
X163001905Y-139134819D02*
X163001905Y-138134819D01*
X163001905Y-138134819D02*
X162906667Y-138277676D01*
X162906667Y-138277676D02*
X162811429Y-138372914D01*
X162811429Y-138372914D02*
X162716191Y-138420533D01*
X140184819Y-155333333D02*
X140899104Y-155333333D01*
X140899104Y-155333333D02*
X141041961Y-155380952D01*
X141041961Y-155380952D02*
X141137200Y-155476190D01*
X141137200Y-155476190D02*
X141184819Y-155619047D01*
X141184819Y-155619047D02*
X141184819Y-155714285D01*
X140518152Y-154428571D02*
X141184819Y-154428571D01*
X140137200Y-154666666D02*
X140851485Y-154904761D01*
X140851485Y-154904761D02*
X140851485Y-154285714D01*
X151096667Y-108087200D02*
X151239524Y-108134819D01*
X151239524Y-108134819D02*
X151477619Y-108134819D01*
X151477619Y-108134819D02*
X151572857Y-108087200D01*
X151572857Y-108087200D02*
X151620476Y-108039580D01*
X151620476Y-108039580D02*
X151668095Y-107944342D01*
X151668095Y-107944342D02*
X151668095Y-107849104D01*
X151668095Y-107849104D02*
X151620476Y-107753866D01*
X151620476Y-107753866D02*
X151572857Y-107706247D01*
X151572857Y-107706247D02*
X151477619Y-107658628D01*
X151477619Y-107658628D02*
X151287143Y-107611009D01*
X151287143Y-107611009D02*
X151191905Y-107563390D01*
X151191905Y-107563390D02*
X151144286Y-107515771D01*
X151144286Y-107515771D02*
X151096667Y-107420533D01*
X151096667Y-107420533D02*
X151096667Y-107325295D01*
X151096667Y-107325295D02*
X151144286Y-107230057D01*
X151144286Y-107230057D02*
X151191905Y-107182438D01*
X151191905Y-107182438D02*
X151287143Y-107134819D01*
X151287143Y-107134819D02*
X151525238Y-107134819D01*
X151525238Y-107134819D02*
X151668095Y-107182438D01*
X152001429Y-107134819D02*
X152239524Y-108134819D01*
X152239524Y-108134819D02*
X152430000Y-107420533D01*
X152430000Y-107420533D02*
X152620476Y-108134819D01*
X152620476Y-108134819D02*
X152858572Y-107134819D01*
X153763333Y-108134819D02*
X153191905Y-108134819D01*
X153477619Y-108134819D02*
X153477619Y-107134819D01*
X153477619Y-107134819D02*
X153382381Y-107277676D01*
X153382381Y-107277676D02*
X153287143Y-107372914D01*
X153287143Y-107372914D02*
X153191905Y-107420533D01*
X126666666Y-109074819D02*
X126666666Y-109789104D01*
X126666666Y-109789104D02*
X126619047Y-109931961D01*
X126619047Y-109931961D02*
X126523809Y-110027200D01*
X126523809Y-110027200D02*
X126380952Y-110074819D01*
X126380952Y-110074819D02*
X126285714Y-110074819D01*
X127666666Y-110074819D02*
X127095238Y-110074819D01*
X127380952Y-110074819D02*
X127380952Y-109074819D01*
X127380952Y-109074819D02*
X127285714Y-109217676D01*
X127285714Y-109217676D02*
X127190476Y-109312914D01*
X127190476Y-109312914D02*
X127095238Y-109360533D01*
X140591666Y-66119819D02*
X140591666Y-66834104D01*
X140591666Y-66834104D02*
X140544047Y-66976961D01*
X140544047Y-66976961D02*
X140448809Y-67072200D01*
X140448809Y-67072200D02*
X140305952Y-67119819D01*
X140305952Y-67119819D02*
X140210714Y-67119819D01*
X140972619Y-66119819D02*
X141639285Y-66119819D01*
X141639285Y-66119819D02*
X141210714Y-67119819D01*
X134666666Y-109074819D02*
X134666666Y-109789104D01*
X134666666Y-109789104D02*
X134619047Y-109931961D01*
X134619047Y-109931961D02*
X134523809Y-110027200D01*
X134523809Y-110027200D02*
X134380952Y-110074819D01*
X134380952Y-110074819D02*
X134285714Y-110074819D01*
X135047619Y-109074819D02*
X135666666Y-109074819D01*
X135666666Y-109074819D02*
X135333333Y-109455771D01*
X135333333Y-109455771D02*
X135476190Y-109455771D01*
X135476190Y-109455771D02*
X135571428Y-109503390D01*
X135571428Y-109503390D02*
X135619047Y-109551009D01*
X135619047Y-109551009D02*
X135666666Y-109646247D01*
X135666666Y-109646247D02*
X135666666Y-109884342D01*
X135666666Y-109884342D02*
X135619047Y-109979580D01*
X135619047Y-109979580D02*
X135571428Y-110027200D01*
X135571428Y-110027200D02*
X135476190Y-110074819D01*
X135476190Y-110074819D02*
X135190476Y-110074819D01*
X135190476Y-110074819D02*
X135095238Y-110027200D01*
X135095238Y-110027200D02*
X135047619Y-109979580D01*
X160906667Y-141207200D02*
X161049524Y-141254819D01*
X161049524Y-141254819D02*
X161287619Y-141254819D01*
X161287619Y-141254819D02*
X161382857Y-141207200D01*
X161382857Y-141207200D02*
X161430476Y-141159580D01*
X161430476Y-141159580D02*
X161478095Y-141064342D01*
X161478095Y-141064342D02*
X161478095Y-140969104D01*
X161478095Y-140969104D02*
X161430476Y-140873866D01*
X161430476Y-140873866D02*
X161382857Y-140826247D01*
X161382857Y-140826247D02*
X161287619Y-140778628D01*
X161287619Y-140778628D02*
X161097143Y-140731009D01*
X161097143Y-140731009D02*
X161001905Y-140683390D01*
X161001905Y-140683390D02*
X160954286Y-140635771D01*
X160954286Y-140635771D02*
X160906667Y-140540533D01*
X160906667Y-140540533D02*
X160906667Y-140445295D01*
X160906667Y-140445295D02*
X160954286Y-140350057D01*
X160954286Y-140350057D02*
X161001905Y-140302438D01*
X161001905Y-140302438D02*
X161097143Y-140254819D01*
X161097143Y-140254819D02*
X161335238Y-140254819D01*
X161335238Y-140254819D02*
X161478095Y-140302438D01*
X161811429Y-140254819D02*
X162049524Y-141254819D01*
X162049524Y-141254819D02*
X162240000Y-140540533D01*
X162240000Y-140540533D02*
X162430476Y-141254819D01*
X162430476Y-141254819D02*
X162668572Y-140254819D01*
X163001905Y-140350057D02*
X163049524Y-140302438D01*
X163049524Y-140302438D02*
X163144762Y-140254819D01*
X163144762Y-140254819D02*
X163382857Y-140254819D01*
X163382857Y-140254819D02*
X163478095Y-140302438D01*
X163478095Y-140302438D02*
X163525714Y-140350057D01*
X163525714Y-140350057D02*
X163573333Y-140445295D01*
X163573333Y-140445295D02*
X163573333Y-140540533D01*
X163573333Y-140540533D02*
X163525714Y-140683390D01*
X163525714Y-140683390D02*
X162954286Y-141254819D01*
X162954286Y-141254819D02*
X163573333Y-141254819D01*
X157666666Y-109074819D02*
X157666666Y-109789104D01*
X157666666Y-109789104D02*
X157619047Y-109931961D01*
X157619047Y-109931961D02*
X157523809Y-110027200D01*
X157523809Y-110027200D02*
X157380952Y-110074819D01*
X157380952Y-110074819D02*
X157285714Y-110074819D01*
X158619047Y-109074819D02*
X158142857Y-109074819D01*
X158142857Y-109074819D02*
X158095238Y-109551009D01*
X158095238Y-109551009D02*
X158142857Y-109503390D01*
X158142857Y-109503390D02*
X158238095Y-109455771D01*
X158238095Y-109455771D02*
X158476190Y-109455771D01*
X158476190Y-109455771D02*
X158571428Y-109503390D01*
X158571428Y-109503390D02*
X158619047Y-109551009D01*
X158619047Y-109551009D02*
X158666666Y-109646247D01*
X158666666Y-109646247D02*
X158666666Y-109884342D01*
X158666666Y-109884342D02*
X158619047Y-109979580D01*
X158619047Y-109979580D02*
X158571428Y-110027200D01*
X158571428Y-110027200D02*
X158476190Y-110074819D01*
X158476190Y-110074819D02*
X158238095Y-110074819D01*
X158238095Y-110074819D02*
X158142857Y-110027200D01*
X158142857Y-110027200D02*
X158095238Y-109979580D01*
D11*
%TO.C,J2*%
X129810000Y-122845000D02*
X129810000Y-138205000D01*
X129810000Y-122845000D02*
X138440000Y-122845000D01*
X129810000Y-122965000D02*
X138440000Y-122965000D01*
X129810000Y-123083095D02*
X138440000Y-123083095D01*
X129810000Y-123201190D02*
X138440000Y-123201190D01*
X129810000Y-123319285D02*
X138440000Y-123319285D01*
X129810000Y-123437380D02*
X138440000Y-123437380D01*
X129810000Y-123555475D02*
X138440000Y-123555475D01*
X129810000Y-123673570D02*
X138440000Y-123673570D01*
X129810000Y-123791665D02*
X138440000Y-123791665D01*
X129810000Y-123909760D02*
X138440000Y-123909760D01*
X129810000Y-124027855D02*
X138440000Y-124027855D01*
X129810000Y-124145950D02*
X138440000Y-124145950D01*
X129810000Y-124264045D02*
X138440000Y-124264045D01*
X129810000Y-124382140D02*
X138440000Y-124382140D01*
X129810000Y-124500235D02*
X138440000Y-124500235D01*
X129810000Y-124618330D02*
X138440000Y-124618330D01*
X129810000Y-124736425D02*
X138440000Y-124736425D01*
X129810000Y-124854520D02*
X138440000Y-124854520D01*
X129810000Y-124972615D02*
X138440000Y-124972615D01*
X129810000Y-125090710D02*
X138440000Y-125090710D01*
X129810000Y-125208805D02*
X138440000Y-125208805D01*
X129810000Y-125326900D02*
X138440000Y-125326900D01*
X129810000Y-125445000D02*
X138440000Y-125445000D01*
X129810000Y-127985000D02*
X138440000Y-127985000D01*
X129810000Y-130525000D02*
X138440000Y-130525000D01*
X129810000Y-133065000D02*
X138440000Y-133065000D01*
X129810000Y-135605000D02*
X138440000Y-135605000D01*
X129810000Y-138205000D02*
X138440000Y-138205000D01*
X138440000Y-122845000D02*
X138440000Y-138205000D01*
X138440000Y-123815000D02*
X138790000Y-123815000D01*
X138440000Y-124535000D02*
X138790000Y-124535000D01*
X138440000Y-126355000D02*
X138850000Y-126355000D01*
X138440000Y-127075000D02*
X138850000Y-127075000D01*
X138440000Y-128895000D02*
X138850000Y-128895000D01*
X138440000Y-129615000D02*
X138850000Y-129615000D01*
X138440000Y-131435000D02*
X138850000Y-131435000D01*
X138440000Y-132155000D02*
X138850000Y-132155000D01*
X138440000Y-133975000D02*
X138850000Y-133975000D01*
X138440000Y-134695000D02*
X138850000Y-134695000D01*
X138440000Y-136515000D02*
X138850000Y-136515000D01*
X138440000Y-137235000D02*
X138850000Y-137235000D01*
X139900000Y-122845000D02*
X141010000Y-122845000D01*
X141010000Y-122845000D02*
X141010000Y-124175000D01*
%TO.C,J8*%
X167380000Y-113270000D02*
X167380000Y-118460000D01*
X164620000Y-118460000D02*
X167380000Y-118460000D01*
X164620000Y-113270000D02*
X167380000Y-113270000D01*
X164620000Y-113270000D02*
X164620000Y-118460000D01*
X164620000Y-112000000D02*
X164620000Y-110620000D01*
X164620000Y-110620000D02*
X166000000Y-110620000D01*
%TO.C,J_1*%
X163620000Y-137680000D02*
X162240000Y-137680000D01*
X163620000Y-136300000D02*
X163620000Y-137680000D01*
X163620000Y-135030000D02*
X163620000Y-127300000D01*
X163620000Y-135030000D02*
X160860000Y-135030000D01*
X163620000Y-127300000D02*
X160860000Y-127300000D01*
X160860000Y-135030000D02*
X160860000Y-127300000D01*
%TO.C,J4*%
X144770000Y-156330000D02*
X152450000Y-156330000D01*
X144770000Y-156330000D02*
X144770000Y-153670000D01*
X152450000Y-156330000D02*
X152450000Y-153670000D01*
X142170000Y-155000000D02*
X142170000Y-153670000D01*
X142170000Y-153670000D02*
X143500000Y-153670000D01*
X144770000Y-153670000D02*
X152450000Y-153670000D01*
%TO.C,SW1*%
X143380000Y-99230000D02*
X143380000Y-99530000D01*
X143380000Y-99230000D02*
X151000000Y-99230000D01*
X143380000Y-101470000D02*
X143380000Y-104610000D01*
X143380000Y-106550000D02*
X143380000Y-106850000D01*
X151000000Y-99230000D02*
X151000000Y-99530000D01*
X151000000Y-101470000D02*
X151000000Y-104610000D01*
X151000000Y-106550000D02*
X151000000Y-106850000D01*
X151000000Y-106850000D02*
X143380000Y-106850000D01*
X149730000Y-103040000D02*
G75*
G02*
X144650000Y-103040000I-2540000J0D01*
G01*
X144650000Y-103040000D02*
G75*
G02*
X149730000Y-103040000I2540000J0D01*
G01*
%TO.C,J1*%
X125620000Y-110620000D02*
X127000000Y-110620000D01*
X125620000Y-112000000D02*
X125620000Y-110620000D01*
X125620000Y-113270000D02*
X125620000Y-118460000D01*
X125620000Y-113270000D02*
X128380000Y-113270000D01*
X125620000Y-118460000D02*
X128380000Y-118460000D01*
X128380000Y-113270000D02*
X128380000Y-118460000D01*
D12*
%TO.C,J7*%
X138000000Y-92250000D02*
X138000000Y-70750000D01*
X139000000Y-69750000D02*
X142390000Y-69750000D01*
X142390000Y-69750000D02*
X151330000Y-69750000D01*
X151330000Y-69750000D02*
X155000000Y-69750000D01*
X155000000Y-93250000D02*
X139000000Y-93250000D01*
X156000000Y-70750000D02*
X156000000Y-92250000D01*
X138000000Y-70750000D02*
G75*
G02*
X139000000Y-69750000I999999J1D01*
G01*
X139000000Y-93250000D02*
G75*
G02*
X138000000Y-92250000I-1J999999D01*
G01*
X155000000Y-69750000D02*
G75*
G02*
X156000000Y-70750000I0J-1000000D01*
G01*
X156000000Y-92250000D02*
G75*
G02*
X155000000Y-93250000I-1000000J0D01*
G01*
D13*
X137350000Y-71340000D02*
G75*
G02*
X137150000Y-71340000I-100000J0D01*
G01*
X137150000Y-71340000D02*
G75*
G02*
X137350000Y-71340000I100000J0D01*
G01*
D11*
%TO.C,J3*%
X133620000Y-110620000D02*
X135000000Y-110620000D01*
X133620000Y-112000000D02*
X133620000Y-110620000D01*
X133620000Y-113270000D02*
X133620000Y-118460000D01*
X133620000Y-113270000D02*
X136380000Y-113270000D01*
X133620000Y-118460000D02*
X136380000Y-118460000D01*
X136380000Y-113270000D02*
X136380000Y-118460000D01*
%TO.C,SW2*%
X160860000Y-141800000D02*
X162240000Y-141800000D01*
X160860000Y-143180000D02*
X160860000Y-141800000D01*
X160860000Y-144450000D02*
X160860000Y-147100000D01*
X160860000Y-144450000D02*
X163620000Y-144450000D01*
X160860000Y-147100000D02*
X163620000Y-147100000D01*
X163620000Y-144450000D02*
X163620000Y-147100000D01*
%TO.C,J5*%
X156620000Y-110620000D02*
X158000000Y-110620000D01*
X156620000Y-112000000D02*
X156620000Y-110620000D01*
X156620000Y-113270000D02*
X156620000Y-118460000D01*
X156620000Y-113270000D02*
X159380000Y-113270000D01*
X156620000Y-118460000D02*
X159380000Y-118460000D01*
X159380000Y-113270000D02*
X159380000Y-118460000D01*
%TD*%
M02*
