%TF.GenerationSoftware,KiCad,Pcbnew,9.0.7-9.0.7~ubuntu24.04.1*%
%TF.CreationDate,2026-03-18T18:18:15-04:00*%
%TF.ProjectId,VoiceRecorder,566f6963-6552-4656-936f-726465722e6b,rev?*%
%TF.SameCoordinates,Original*%
%TF.FileFunction,Soldermask,Top*%
%TF.FilePolarity,Negative*%
%FSLAX46Y46*%
G04 Gerber Fmt 4.6, Leading zero omitted, Abs format (unit mm)*
G04 Created by KiCad (PCBNEW 9.0.7-9.0.7~ubuntu24.04.1) date 2026-03-18 18:18:15*
%MOMM*%
%LPD*%
G01*
G04 APERTURE LIST*
G04 Aperture macros list*
%AMRoundRect*
0 Rectangle with rounded corners*
0 $1 Rounding radius*
0 $2 $3 $4 $5 $6 $7 $8 $9 X,Y pos of 4 corners*
0 Add a 4 corners polygon primitive as box body*
4,1,4,$2,$3,$4,$5,$6,$7,$8,$9,$2,$3,0*
0 Add four circle primitives for the rounded corners*
1,1,$1+$1,$2,$3*
1,1,$1+$1,$4,$5*
1,1,$1+$1,$6,$7*
1,1,$1+$1,$8,$9*
0 Add four rect primitives between the rounded corners*
20,1,$1+$1,$2,$3,$4,$5,0*
20,1,$1+$1,$4,$5,$6,$7,0*
20,1,$1+$1,$6,$7,$8,$9,0*
20,1,$1+$1,$8,$9,$2,$3,0*%
G04 Aperture macros list end*
%ADD10R,1.700000X1.700000*%
%ADD11C,1.700000*%
%ADD12C,1.397000*%
%ADD13C,1.712000*%
%ADD14RoundRect,0.102000X-0.754000X-0.754000X0.754000X-0.754000X0.754000X0.754000X-0.754000X0.754000X0*%
G04 APERTURE END LIST*
D10*
%TO.C,J2*%
X139900000Y-124175000D03*
D11*
X139900000Y-126715000D03*
X139900000Y-129255000D03*
X139900000Y-131795000D03*
X139900000Y-134335000D03*
X139900000Y-136875000D03*
%TD*%
%TO.C,J8*%
X166000000Y-117080000D03*
X166000000Y-114540000D03*
D10*
X166000000Y-112000000D03*
%TD*%
D11*
%TO.C,J_1*%
X162240000Y-128680000D03*
X162240000Y-131220000D03*
X162240000Y-133760000D03*
D10*
X162240000Y-136300000D03*
%TD*%
%TO.C,J4*%
X143500000Y-155000000D03*
D11*
X146040000Y-155000000D03*
X148580000Y-155000000D03*
X151120000Y-155000000D03*
%TD*%
D12*
%TO.C,SW1*%
X143380000Y-100500000D03*
X151000000Y-100500000D03*
X143380000Y-105580000D03*
X151000000Y-105580000D03*
%TD*%
D10*
%TO.C,J1*%
X127000000Y-112000000D03*
D11*
X127000000Y-114540000D03*
X127000000Y-117080000D03*
%TD*%
D13*
%TO.C,J7*%
X139380000Y-76420000D03*
X139380000Y-78960000D03*
X139380000Y-81500000D03*
X154620000Y-76420000D03*
X139380000Y-84040000D03*
X139380000Y-86580000D03*
D14*
X154620000Y-71340000D03*
D13*
X139380000Y-89120000D03*
X139380000Y-91660000D03*
X154620000Y-91660000D03*
X154620000Y-89120000D03*
X154620000Y-86580000D03*
X154620000Y-84040000D03*
X154620000Y-81500000D03*
X154620000Y-79000000D03*
X154620000Y-73880000D03*
X139380000Y-73880000D03*
X139380000Y-71340000D03*
%TD*%
D10*
%TO.C,J3*%
X135000000Y-112000000D03*
D11*
X135000000Y-114540000D03*
X135000000Y-117080000D03*
%TD*%
D10*
%TO.C,SW2*%
X162240000Y-143180000D03*
D11*
X162240000Y-145720000D03*
%TD*%
D10*
%TO.C,J5*%
X158000000Y-112000000D03*
D11*
X158000000Y-114540000D03*
X158000000Y-117080000D03*
%TD*%
M02*
